<?xml version="1.0" encoding="utf-8"?>
<!-- Generator: Adobe Illustrator 21.0.0, SVG Export Plug-In . SVG Version: 6.00 Build 0)  -->
<svg version="1.1" id="Layer_1" xmlns="http://www.w3.org/2000/svg" xmlns:xlink="http://www.w3.org/1999/xlink" x="0px" y="0px"
	 viewBox="0 0 238.6 335.4" style="enable-background:new 0 0 238.6 335.4;" xml:space="preserve">
<style type="text/css">
	.st0{fill:#EBD2D4;stroke:#EBD2D4;stroke-miterlimit:10;}
	.st1{stroke:#EDB7BE;stroke-miterlimit:10;}
	.st2{fill:#EF86B6;stroke:#EF86B6;stroke-width:0.25;stroke-miterlimit:10;}
	.st3{fill:#FFFFFF;stroke:#FFFFFF;stroke-width:0.25;stroke-miterlimit:10;}
	.st4{fill:#EF5491;stroke:#EF5491;stroke-linecap:round;stroke-miterlimit:10;}
	.st5{fill:#F69BA4;stroke:#F69BA4;stroke-miterlimit:10;}
	.st6{fill:#F2F2F3;stroke:#F2F2F3;stroke-miterlimit:10;}
	.st7{fill:#ED1C24;stroke:#ED1C24;stroke-miterlimit:10;}
	.st8{fill:#C92128;stroke:#C92128;stroke-miterlimit:10;}
	.st9{fill:#F2F2F3;stroke:#E6E7E8;stroke-linecap:round;stroke-miterlimit:10;}
	.st10{fill:#E6E7E8;stroke:#E6E7E8;stroke-linecap:round;stroke-miterlimit:10;}
	.st11{fill:none;stroke:#E6E7E8;stroke-linecap:round;stroke-miterlimit:10;}
	.st12{fill:none;stroke:#E6E7E8;stroke-width:4;stroke-linecap:round;stroke-miterlimit:10;}
	.st13{fill:#FECD87;}
	.st14{fill:url(#SVGID_1_);}
	.st15{fill:url(#SVGID_2_);}
	.st16{fill:url(#SVGID_3_);}
	.st17{fill:url(#SVGID_4_);}
	.st18{opacity:0.25;fill:url(#SVGID_5_);}
	.st19{opacity:0.25;fill:url(#SVGID_6_);}
	.st20{opacity:0.25;fill:url(#SVGID_7_);}
	.st21{opacity:0.25;fill:url(#SVGID_8_);}
	.st22{fill:url(#SVGID_9_);}
	.st23{opacity:0.25;fill:url(#SVGID_10_);}
	.st24{fill:url(#SVGID_11_);}
	.st25{opacity:0.25;fill:url(#SVGID_12_);}
	.st26{fill:url(#SVGID_13_);}
	.st27{opacity:0.25;fill:url(#SVGID_14_);}
	.st28{fill:url(#SVGID_15_);}
	.st29{opacity:0.25;fill:url(#SVGID_16_);}
	.st30{fill:none;stroke:#000000;stroke-width:0;stroke-linecap:round;stroke-linejoin:round;}
	.st31{fill:url(#SVGID_17_);}
	.st32{fill:url(#SVGID_18_);}
	.st33{fill:url(#SVGID_19_);}
	.st34{fill:url(#SVGID_20_);}
	.st35{opacity:0.25;fill:url(#SVGID_21_);}
	.st36{opacity:0.25;fill:url(#SVGID_22_);}
	.st37{opacity:0.25;fill:url(#SVGID_23_);}
	.st38{opacity:0.25;fill:url(#SVGID_24_);}
	.st39{fill:url(#SVGID_25_);}
	.st40{opacity:0.25;fill:url(#SVGID_26_);}
	.st41{fill:url(#SVGID_27_);}
	.st42{opacity:0.25;fill:url(#SVGID_28_);}
	.st43{fill:url(#SVGID_29_);}
	.st44{opacity:0.25;fill:url(#SVGID_30_);}
	.st45{fill:url(#SVGID_31_);}
	.st46{opacity:0.25;fill:url(#SVGID_32_);}
	.st47{fill:#F4F2A9;stroke:#F4F2A9;stroke-linecap:round;stroke-miterlimit:10;}
	.st48{fill:#2B3990;stroke:#2E3192;stroke-miterlimit:10;}
	.st49{fill:#BCBEC0;stroke:#BCBEC0;stroke-miterlimit:10;}
	.st50{fill:#A97C50;stroke:#A97C50;stroke-miterlimit:10;}
	.st51{fill:url(#SVGID_33_);}
	.st52{fill:url(#SVGID_34_);}
	.st53{fill:url(#SVGID_35_);}
	.st54{fill:#E6E7E8;stroke:#E6E7E8;stroke-miterlimit:10;}
</style>
<path class="st0" d="M82.4,276.3c-6.3,3.8-5.7,13.7-4.8,29.6c0.8,13.1,1.3,20,6.9,24.3c6,4.7,16.1,5.2,20.6,0.5
	c2.8-2.9,2-6.1,1.6-18.5c-0.7-22.1,1.6-24.9-2.1-29.6C99.5,276.1,88.7,272.5,82.4,276.3z"/>
<path class="st0" d="M159.1,276.3c6.3,3.8,5.7,13.7,4.8,29.6c-0.8,13.1-1.3,20-6.9,24.3c-6,4.7-16.1,5.2-20.6,0.5
	c-2.8-2.9-2-6.1-1.6-18.5c0.7-22.1-1.6-24.9,2.1-29.6C142.1,276.1,152.9,272.5,159.1,276.3z"/>
<path class="st0" d="M140.5,193c6.7-1.7,10.2,10,29.4,17.3c10.2,3.9,15.7,2.2,19.3,7.3c4,5.7,2.8,15.9-2.4,19.9
	c-4.8,3.6-12.8,0.5-28.6-5.8c-14.4-5.8-21.7-8.8-24.3-15C130.3,207.8,134.1,194.7,140.5,193z"/>
<path class="st0" d="M96.2,196.3c-3.3-6.1-14.3-0.8-32.6-9.9c-9.8-4.9-12.2-10.1-18.4-9.2c-6.9,1-13.6,8.6-13,15.2
	c0.5,6,8.2,9.8,23.6,17.1c14.1,6.7,21.2,10,27.5,7.7C92.3,213.8,99.4,202.2,96.2,196.3z"/>
<path class="st0" d="M94.9,186c-3.7,4.1-3.6,7.2-6.6,19.8c-8.2,35-15.9,40.8-14.3,60.3c0.7,8.6,1.2,14.7,5.3,21.2
	c14.9,23.3,62.6,27.4,79.4,6.9c6.7-8.1,6.8-18,6.9-29.6c0.1-12.6-2.8-16.9-16.9-57.7c-6-17.2-6.9-20.8-11.6-24.3
	C125.3,173.6,104.5,175.4,94.9,186z"/>
<path class="st0" d="M143.3,191.7c-2-5-3.5-7.2-6.3-9.3c-11.8-8.9-32.5-7.1-42.1,3.5c-1.8,2-2.7,3.7-3.5,6.4
	C108.4,200.4,127.5,201.5,143.3,191.7z"/>
<path class="st0" d="M99.1,93.9c-21.8,10-28.8,31.8-31.8,41c-2.9,9.1-5.8,17.9-2.8,27.7c6.4,21.2,35.3,31.4,56.9,31.1
	c23.9-0.3,52.3-13.8,56.4-33.3c1.3-6.5-0.6-13-4.5-26.1c-4.3-14.5-7-23.6-13.9-31.1C145.8,88.7,119.5,84.6,99.1,93.9z"/>
<path class="st0" d="M96.3,111.3c11-3.3-0.1-101.6-11.2-101.8C78.2,9.3,65,47.6,77.3,82.3C81.5,94.1,91.2,112.8,96.3,111.3z"/>
<path class="st0" d="M149.3,114.1c-11-3.3,0.1-101.6,11.2-101.8c6.9-0.1,20.1,38.1,7.8,72.9C164.1,96.9,154.4,115.6,149.3,114.1z"/>
<ellipse transform="matrix(6.332770e-02 -0.998 0.998 6.332770e-02 -40.1902 223.9903)" class="st1" cx="99.2" cy="133.4" rx="11.8" ry="4"/>
<ellipse transform="matrix(6.332782e-02 -0.998 0.998 6.332782e-02 -0.9739 269.1823)" class="st1" cx="142.9" cy="135.1" rx="11.8" ry="4"/>
<g>
	<g>
		<path d="M114.5,151.3c4.3,0.9,8.7,1,13,0.3c0.8-0.1,0.5-1.3-0.3-1.2c-4.1,0.7-8.3,0.6-12.4-0.3C114,149.9,113.7,151.1,114.5,151.3
			L114.5,151.3z"/>
	</g>
</g>
<g>
	<g>
		<path d="M119.7,152.3c-0.2,2-0.2,4-0.1,6c0,0.8,1.3,0.8,1.3,0c-0.1-2-0.1-4,0.1-6C121,151.5,119.8,151.5,119.7,152.3L119.7,152.3z
			"/>
	</g>
</g>
<path class="st2" d="M87.1,162.8c1.7-8,65.7-5.8,66.9,2.4c0.6,4.4-16.6,12-32.8,11.8C103.7,176.7,86.2,167.2,87.1,162.8z"/>
<path class="st3" d="M120.1,161.3c0-0.2-0.1-1.1-0.1-2.2c0-0.5,0-0.9,0-1.2c-1.9-0.1-3.9-0.1-6-0.1c-1.7,0-3.4,0.1-4.9,0.1
	c-0.1,0.5-0.1,1.1-0.2,1.9c0,0.6-0.1,2.1-0.1,3.5c-0.1,2.3-0.1,3.5,0.4,4.2c1.8,2.4,7.5,2.8,9.9,0.5
	C120.3,166.7,120.3,164.9,120.1,161.3z"/>
<path class="st3" d="M130.9,161.8c0-1.3,0-2.8,0-2.8c0-0.2,0-0.4,0-0.5c-1.7-0.2-3.5-0.4-5.4-0.5c-1.9-0.1-3.8-0.2-5.6-0.2
	c0,0.4,0,1.1-0.1,1.8c-0.1,1.9-0.2,2.6-0.3,3.7c-0.2,2.3-0.2,3.5,0.3,4.2c1.7,2.5,7.4,3.1,9.8,0.9
	C130.9,167.3,130.8,164.9,130.9,161.8z"/>
<ellipse transform="matrix(6.332825e-02 -0.998 0.998 6.332825e-02 -63.6976 225.239)" class="st4" cx="88.1" cy="146.6" rx="6" ry="6.2"/>
<ellipse transform="matrix(6.332694e-02 -0.998 0.998 6.332694e-02 -7.2995 292.1771)" class="st4" cx="152" cy="150" rx="6" ry="6.2"/>
<path class="st5" d="M94.4,99.5c4.6-1.2-3.3-55.6-8.1-55.5c-2.6,0.1-5.5,16.5-2.6,31.5C85.9,87,92,100.1,94.4,99.5z"/>
<path class="st5" d="M152.2,102.2c-4.6-1.2,3.3-55.6,8.1-55.5c2.6,0.1,5.5,16.5,2.6,31.5C160.6,89.7,154.5,102.8,152.2,102.2z"/>
<path class="st6" d="M80.4,256.5c4.1-4.9,12-0.9,38,0c9,0.3,13.5,0.4,18.2-0.3c2.5-0.4,6.3-1.2,11.8-1.3c5.1-0.1,7.7-0.2,9.5,1.2
	c3.5,2.5,2.1,8.2,2.5,17c0.6,15.9,1,23.8-1.5,27.5c-5.4,8-17.7,7.8-38.5,7.5c-21.6-0.3-33.1-0.5-38.5-8.5c-1.5-2.3-1.9-11.5-2.5-30
	C79,259.4,79.1,258,80.4,256.5z"/>
<path class="st7" d="M115.4,203.3c-3.8-1.3-16.2,12-12,21.5c1.4,3.2,5.1,6.8,8,6C118,229.1,119.8,204.9,115.4,203.3z"/>
<path class="st8" d="M114.2,214.4c0.9-3.2,1.1-6,1.2-7.9c-0.1-0.7-0.3-1.1-0.6-1.3c-0.1-0.1-0.3-0.1-0.5-0.1c-1.1,3.2-2.2,5.6-3,7.2
	c-1.1,2.1-1.8,3.2-2,5c-0.3,2.2,0.2,4.8,1.1,5C111.6,222.5,113.4,217.2,114.2,214.4z"/>
<path class="st7" d="M122.8,203.7c3.7-1.3,16.1,11.9,11.9,21.3c-1.4,3.1-5,6.7-7.9,5.9C120.1,229.1,118.3,205.2,122.8,203.7z"/>
<path class="st8" d="M122.9,206.2c-0.5,6.8,1.6,12.7,5.1,17.6C131.5,215.6,126.5,211.3,122.9,206.2z"/>
<path class="st7" d="M148.4,195.3c-1.1-1.9-3.4-5.2-7.3-6.5c-10.4-3.6-22.6,9.7-21.2,12.5C120.7,203,126.9,202.6,148.4,195.3z"/>
<path class="st7" d="M87.3,193.5c1.1-1.9,3.4-5.2,7.3-6.5c10.4-3.6,22.6,9.7,21.2,12.5C114.9,201.2,108.7,200.8,87.3,193.5z"/>
<path class="st8" d="M113.5,200.2c-1.2,1.8-1.1,4.4,0.2,6.2c1.9,2.7,6.3,3.4,8.8,1c2-1.9,2.4-5.1,1-7.2
	C121.4,196.9,115.6,197.1,113.5,200.2z"/>
<path class="st9" d="M99.6,8.5c-0.1,2.5-0.3,6-0.5,10.2c-0.3,7-0.6,14.4-1.1,38.2c0,0-0.1,5.4,0,31.5c0,6.6,0.1,8.7,0.5,10.1
	c0,0.1,0,0.2,0,0.4c0,0,0.2,1.6,0.7,3.2c0.3,1.1,6,7,21.8,7.3c13.5,0.3,26.2-3.7,27-8.3c0.1-0.6,0.3-2.4,0.3-2.5
	c0.3-3.9,0.3-6.8,0.3-7.6c-0.1-5.6,0-23.8,0-32.5c0-12.5,0.5-29,0.5-37.6c0,0,0-1.2,0-2.9c0-5.5,0-8.2-0.3-8.9
	c-1.5-4.5-13.7-2.8-21.9-1.9C120.4,8,111.1,8.7,99.6,8.5z"/>
<path class="st10" d="M148.5,78.7c-15.5,6.2-35.6,6.2-50.5-2.8c0,3.5,0,7.7,0,12.5c0,6.6,0.1,8.7,0.5,10.1c0,0,0.2,0.5,0.3,1
	c1.4,3.6,8.4,8.9,22.2,9.9c13.6,1,26.2-3.3,27-8.3c0.1-0.6,0.3-2.4,0.3-2.5c0.3-3.9,0.3-6.8,0.3-7.6C148.5,88.6,148.5,84,148.5,78.7
	z"/>
<ellipse class="st9" cx="124.4" cy="8.7" rx="25" ry="6.2"/>
<line class="st11" x1="104.6" y1="12.5" x2="103.4" y2="78.5"/>
<line class="st11" x1="113.1" y1="13.7" x2="110.6" y2="81.2"/>
<line class="st11" x1="143.6" y1="12.5" x2="142.4" y2="83.7"/>
<line class="st11" x1="135.9" y1="14" x2="135.1" y2="93"/>
<line class="st11" x1="127.6" y1="14.5" x2="127.9" y2="88"/>
<line class="st11" x1="120.9" y1="14.7" x2="119.4" y2="89.7"/>
<path class="st12" d="M74.9,251.8c2.9,0.6,6.9,1.4,11.7,2.2c13.8,2.2,25,2.6,31.7,2.7c10.5,0.1,19.4,0.2,31-2.2
	c5.9-1.2,10.7-2.7,14.2-3.8"/>
<path class="st13" d="M65.5,147.3c3.5-7.3,0.3-15.1-2.2-14.8c-2.8,0.4-7.2,11.2-8.1,17.8c2,0.9,3.9,1.9,5.6,3.1
	C62.5,151.9,64.4,149.8,65.5,147.3z"/>
<path class="st13" d="M19.7,131.9c-2.4-0.6-6.8,6.7-4.6,14.4c1.1,3.7,3.5,6.8,5.6,8.2c1.3-1,2.6-1.9,4.1-2.7
	C25.4,145.4,22.5,132.7,19.7,131.9z"/>
<path class="st13" d="M8.7,172.9c0.2-1.2,0.6-3.5,2-6.3C9.3,169.4,8.9,171.7,8.7,172.9z"/>
<radialGradient id="SVGID_1_" cx="-291.2568" cy="-639.488" r="239.4998" fx="-282.0977" fy="-633.5898" gradientTransform="matrix(0.2133 -8.502915e-03 6.994028e-03 0.1986 105.1937 272.3429)" gradientUnits="userSpaceOnUse">
	<stop  offset="0" style="stop-color:#A51E22;stop-opacity:0.6512"/>
	<stop  offset="0" style="stop-color:#A51E22;stop-opacity:0.9"/>
	<stop  offset="0.7012" style="stop-color:#A51E22;stop-opacity:0.6512"/>
	<stop  offset="1" style="stop-color:#FFCC5F;stop-opacity:0.9"/>
</radialGradient>
<path class="st14" d="M20.8,154.6C20.8,154.5,20.7,154.5,20.8,154.6c-4.9,3.7-8.3,8.2-10.1,12C12.6,162.6,16,158.2,20.8,154.6z"/>
<radialGradient id="SVGID_2_" cx="-291.2568" cy="-639.488" r="239.4998" fx="-282.0977" fy="-633.5898" gradientTransform="matrix(0.2133 -8.502915e-03 6.994028e-03 0.1986 105.1937 272.3429)" gradientUnits="userSpaceOnUse">
	<stop  offset="0" style="stop-color:#A51E22;stop-opacity:0.6512"/>
	<stop  offset="0" style="stop-color:#A51E22;stop-opacity:0.9"/>
	<stop  offset="0.7012" style="stop-color:#A51E22;stop-opacity:0.6512"/>
	<stop  offset="1" style="stop-color:#FFCC5F;stop-opacity:0.9"/>
</radialGradient>
<path class="st15" d="M39.6,147.4c1.9-0.1,3.8-0.1,5.6,0.1c-2-0.2-4.2-0.3-6.4-0.1c-5.4,0.4-10.1,2-14.1,4.3c0,0.1,0,0.1,0,0.2
	C28.9,149.5,33.8,147.8,39.6,147.4z"/>
<radialGradient id="SVGID_3_" cx="-291.2568" cy="-639.488" r="239.4998" fx="-282.0977" fy="-633.5898" gradientTransform="matrix(0.2133 -8.502915e-03 6.994028e-03 0.1986 105.1937 272.3429)" gradientUnits="userSpaceOnUse">
	<stop  offset="0" style="stop-color:#A51E22;stop-opacity:0.6512"/>
	<stop  offset="0" style="stop-color:#A51E22;stop-opacity:0.9"/>
	<stop  offset="0.7012" style="stop-color:#A51E22;stop-opacity:0.6512"/>
	<stop  offset="1" style="stop-color:#FFCC5F;stop-opacity:0.9"/>
</radialGradient>
<path class="st16" d="M8.6,173.5c0-0.2,0.1-0.4,0.1-0.6C8.7,173.1,8.6,173.4,8.6,173.5z"/>
<path class="st13" d="M8.8,173.7c0.1-0.8,0.4-3.5,2.1-6.9c2.2-4.6,6.9-10.7,13.9-14.8c0,0,0-0.1,0-0.2c-1.5,0.8-2.8,1.7-4.1,2.7
	c0,0,0.1,0,0.1,0.1c-4.8,3.6-8.2,8.1-10.1,12c-1.4,2.8-1.8,5.1-2,6.3c0,0.3-0.1,0.5-0.1,0.6c-1.1,6.3,1,12.5,5.2,16.7
	C9.7,186,7.7,179.9,8.8,173.7z"/>
<radialGradient id="SVGID_4_" cx="-291.2568" cy="-639.488" r="239.4998" fx="-282.0977" fy="-633.5898" gradientTransform="matrix(0.2133 -8.502915e-03 6.994028e-03 0.1986 105.1937 272.3429)" gradientUnits="userSpaceOnUse">
	<stop  offset="0" style="stop-color:#A51E22;stop-opacity:0.6512"/>
	<stop  offset="0" style="stop-color:#A51E22;stop-opacity:0.9"/>
	<stop  offset="0.7012" style="stop-color:#A51E22;stop-opacity:0.6512"/>
	<stop  offset="1" style="stop-color:#FFCC5F;stop-opacity:0.9"/>
</radialGradient>
<path class="st17" d="M8.8,173.7c0.1-0.8,0.4-3.5,2.1-6.9c2.2-4.6,6.9-10.7,13.9-14.8c0,0,0-0.1,0-0.2c-1.5,0.8-2.8,1.7-4.1,2.7
	c0,0,0.1,0,0.1,0.1c-4.8,3.6-8.2,8.1-10.1,12c-1.4,2.8-1.8,5.1-2,6.3c0,0.3-0.1,0.5-0.1,0.6c-1.1,6.3,1,12.5,5.2,16.7
	C9.7,186,7.7,179.9,8.8,173.7z"/>
<radialGradient id="SVGID_5_" cx="-291.8971" cy="-598.8276" r="148.3579" fx="-286.4848" fy="-594.7969" gradientTransform="matrix(0.1313 0.1555 -0.1648 0.1212 -21.6262 273.8949)" gradientUnits="userSpaceOnUse">
	<stop  offset="0" style="stop-color:#A51E22;stop-opacity:0.9"/>
	<stop  offset="0.7012" style="stop-color:#A51E22;stop-opacity:0.6512"/>
	<stop  offset="1" style="stop-color:#FFCC5F;stop-opacity:0.9"/>
</radialGradient>
<path class="st18" d="M55.2,150.2c-3-1.3-6.3-2.3-10-2.7C48.9,148,52.2,148.9,55.2,150.2C55.2,150.3,55.2,150.2,55.2,150.2z"/>
<radialGradient id="SVGID_6_" cx="-291.8971" cy="-598.8276" r="148.3579" fx="-286.4848" fy="-594.7969" gradientTransform="matrix(0.1313 0.1555 -0.1648 0.1212 -21.6262 273.8949)" gradientUnits="userSpaceOnUse">
	<stop  offset="0" style="stop-color:#A51E22;stop-opacity:0.9"/>
	<stop  offset="0.7012" style="stop-color:#A51E22;stop-opacity:0.6512"/>
	<stop  offset="1" style="stop-color:#FFCC5F;stop-opacity:0.9"/>
</radialGradient>
<path class="st19" d="M74,172.8c-0.2-1-0.5-4.8-3.4-9.4c-2-3.3-5.4-7-9.8-10c0,0,0,0,0,0c4.3,2.9,7.6,6.5,9.7,9.8
	c2.2,3.5,2.9,6.7,3.2,8.4c0.1,0.5,0.1,0.8,0.2,1.1c1.4,7.4-2.1,15-8.7,18.6c0,0-0.1,0-0.1,0.1c-4.9,2.6-7.8,2.1-20.8,3.1
	c-15.1,1.1-17.1,2.2-22.4,0.6c-0.1,0-0.1,0-0.2-0.1c-3.1-0.9-5.7-2.6-7.8-4.7c2.1,2.2,4.9,4,8,4.9c0.1,0,0.1,0,0.2,0.1
	c5.3,1.6,7.3,0.5,22.4-0.6c13-1,15.9-0.5,20.8-3.1c0,0,0.1,0,0.1-0.1C71.9,187.8,75.4,180.2,74,172.8z"/>
<path class="st13" d="M60.7,153.3C60.8,153.3,60.8,153.3,60.7,153.3c-1.7-1.2-3.5-2.2-5.5-3.1c0,0,0,0,0,0
	C57.2,151.1,59.1,152.2,60.7,153.3z"/>
<radialGradient id="SVGID_7_" cx="-291.8971" cy="-598.8276" r="148.3579" fx="-286.4848" fy="-594.7969" gradientTransform="matrix(0.1313 0.1555 -0.1648 0.1212 -21.6262 273.8949)" gradientUnits="userSpaceOnUse">
	<stop  offset="0" style="stop-color:#A51E22;stop-opacity:0.9"/>
	<stop  offset="0.7012" style="stop-color:#A51E22;stop-opacity:0.6512"/>
	<stop  offset="1" style="stop-color:#FFCC5F;stop-opacity:0.9"/>
</radialGradient>
<path class="st20" d="M60.7,153.3C60.8,153.3,60.8,153.3,60.7,153.3c-1.7-1.2-3.5-2.2-5.5-3.1c0,0,0,0,0,0
	C57.2,151.1,59.1,152.2,60.7,153.3z"/>
<path class="st13" d="M70.5,163.2c2.2,3.6,2.9,6.7,3.2,8.4C73.4,169.9,72.7,166.7,70.5,163.2z"/>
<radialGradient id="SVGID_8_" cx="-291.8971" cy="-598.8276" r="148.3579" fx="-286.4848" fy="-594.7969" gradientTransform="matrix(0.1313 0.1555 -0.1648 0.1212 -21.6262 273.8949)" gradientUnits="userSpaceOnUse">
	<stop  offset="0" style="stop-color:#A51E22;stop-opacity:0.9"/>
	<stop  offset="0.7012" style="stop-color:#A51E22;stop-opacity:0.6512"/>
	<stop  offset="1" style="stop-color:#FFCC5F;stop-opacity:0.9"/>
</radialGradient>
<path class="st21" d="M70.5,163.2c2.2,3.6,2.9,6.7,3.2,8.4C73.4,169.9,72.7,166.7,70.5,163.2z"/>
<radialGradient id="SVGID_9_" cx="-291.2568" cy="-639.488" r="239.4998" fx="-282.0977" fy="-633.5898" gradientTransform="matrix(0.2133 -8.502915e-03 6.994028e-03 0.1986 105.1937 272.3429)" gradientUnits="userSpaceOnUse">
	<stop  offset="0" style="stop-color:#A51E22;stop-opacity:0.6512"/>
	<stop  offset="0" style="stop-color:#A51E22;stop-opacity:0.9"/>
	<stop  offset="0.7012" style="stop-color:#A51E22;stop-opacity:0.6512"/>
	<stop  offset="1" style="stop-color:#FFCC5F;stop-opacity:0.9"/>
</radialGradient>
<path class="st22" d="M24.8,151.9C24.8,151.9,24.8,151.9,24.8,151.9c4-2.2,8.7-3.8,14-4.2c6.1-0.5,11.6,0.7,16.4,2.7
	c0,0,0-0.1,0-0.1c-3-1.3-6.4-2.3-10-2.7c-1.8-0.2-3.7-0.2-5.6-0.1C33.8,147.8,28.9,149.5,24.8,151.9z"/>
<radialGradient id="SVGID_10_" cx="-291.8971" cy="-598.8276" r="148.3579" fx="-286.4848" fy="-594.7969" gradientTransform="matrix(0.1313 0.1555 -0.1648 0.1212 -21.6262 273.8949)" gradientUnits="userSpaceOnUse">
	<stop  offset="0" style="stop-color:#A51E22;stop-opacity:0.9"/>
	<stop  offset="0.7012" style="stop-color:#A51E22;stop-opacity:0.6512"/>
	<stop  offset="1" style="stop-color:#FFCC5F;stop-opacity:0.9"/>
</radialGradient>
<path class="st23" d="M24.8,151.9C24.8,151.9,24.8,151.9,24.8,151.9c4-2.2,8.7-3.8,14-4.2c6.1-0.5,11.6,0.7,16.4,2.7
	c0,0,0-0.1,0-0.1c-3-1.3-6.4-2.3-10-2.7c-1.8-0.2-3.7-0.2-5.6-0.1C33.8,147.8,28.9,149.5,24.8,151.9z"/>
<radialGradient id="SVGID_11_" cx="-291.2568" cy="-639.488" r="239.4998" fx="-282.0977" fy="-633.5898" gradientTransform="matrix(0.2133 -8.502915e-03 6.994028e-03 0.1986 105.1937 272.3429)" gradientUnits="userSpaceOnUse">
	<stop  offset="0" style="stop-color:#A51E22;stop-opacity:0.6512"/>
	<stop  offset="0" style="stop-color:#A51E22;stop-opacity:0.9"/>
	<stop  offset="0.7012" style="stop-color:#A51E22;stop-opacity:0.6512"/>
	<stop  offset="1" style="stop-color:#FFCC5F;stop-opacity:0.9"/>
</radialGradient>
<path class="st24" d="M73.7,171.6c0.1,0.5,0.1,0.8,0.2,1.1C73.8,172.4,73.8,172,73.7,171.6z"/>
<radialGradient id="SVGID_12_" cx="-291.8971" cy="-598.8276" r="148.3579" fx="-286.4848" fy="-594.7969" gradientTransform="matrix(0.1313 0.1555 -0.1648 0.1212 -21.6262 273.8949)" gradientUnits="userSpaceOnUse">
	<stop  offset="0" style="stop-color:#A51E22;stop-opacity:0.9"/>
	<stop  offset="0.7012" style="stop-color:#A51E22;stop-opacity:0.6512"/>
	<stop  offset="1" style="stop-color:#FFCC5F;stop-opacity:0.9"/>
</radialGradient>
<path class="st25" d="M73.7,171.6c0.1,0.5,0.1,0.8,0.2,1.1C73.8,172.4,73.8,172,73.7,171.6z"/>
<radialGradient id="SVGID_13_" cx="-291.2568" cy="-639.488" r="239.4998" fx="-282.0977" fy="-633.5898" gradientTransform="matrix(0.2133 -8.502915e-03 6.994028e-03 0.1986 105.1937 272.3429)" gradientUnits="userSpaceOnUse">
	<stop  offset="0" style="stop-color:#A51E22;stop-opacity:0.6512"/>
	<stop  offset="0" style="stop-color:#A51E22;stop-opacity:0.9"/>
	<stop  offset="0.7012" style="stop-color:#A51E22;stop-opacity:0.6512"/>
	<stop  offset="1" style="stop-color:#FFCC5F;stop-opacity:0.9"/>
</radialGradient>
<path class="st26" d="M70.5,163.2c-2.1-3.3-5.4-6.9-9.7-9.8c0,0,0,0-0.1,0.1C65,156.3,68.3,159.8,70.5,163.2z"/>
<radialGradient id="SVGID_14_" cx="-291.8971" cy="-598.8276" r="148.3579" fx="-286.4848" fy="-594.7969" gradientTransform="matrix(0.1313 0.1555 -0.1648 0.1212 -21.6262 273.8949)" gradientUnits="userSpaceOnUse">
	<stop  offset="0" style="stop-color:#A51E22;stop-opacity:0.9"/>
	<stop  offset="0.7012" style="stop-color:#A51E22;stop-opacity:0.6512"/>
	<stop  offset="1" style="stop-color:#FFCC5F;stop-opacity:0.9"/>
</radialGradient>
<path class="st27" d="M70.5,163.2c-2.1-3.3-5.4-6.9-9.7-9.8c0,0,0,0-0.1,0.1C65,156.3,68.3,159.8,70.5,163.2z"/>
<path class="st13" d="M21.6,194.9c0.1,0,0.1,0,0.2,0.1c5.3,1.6,7.3,0.5,22.4-0.6c13-1,15.9-0.5,20.8-3.1c0,0,0.1,0,0.1-0.1
	c6.6-3.6,10.1-11.1,8.7-18.6c0-0.2-0.1-0.6-0.2-1.1c-0.3-1.7-1-4.8-3.2-8.4c-2.1-3.4-5.5-6.9-9.8-9.8c0,0,0,0,0.1-0.1
	c-1.7-1.1-3.5-2.2-5.5-3.1c0,0,0,0.1,0,0.1c-4.8-2.1-10.3-3.2-16.4-2.7c-5.3,0.4-10,2-14,4.3c0,0,0,0,0,0
	c-7,4.1-11.7,10.2-13.9,14.8c-1.7,3.5-1.9,6.1-2.1,6.9c-1.1,6.2,0.9,12.3,5,16.5C15.9,192.4,18.6,194,21.6,194.9z M30.3,170.2
	c-0.5,0-1-0.3-1.1-0.9c0-0.5,0.4-1,0.9-1c0.5,0,1,0.3,1.1,0.9C31.3,169.7,30.8,170.1,30.3,170.2z M41.9,178.1l0.3,2.8L41.9,178.1
	C41.9,178.1,41.9,178.1,41.9,178.1c-2.4,0.2-4.2-1.8-3.9-2.8c0.4-1.5,6.3-2.1,7-0.7C45.6,175.4,44.3,177.8,41.9,178.1z M51.4,168.5
	c-0.5,0-1-0.3-1.1-0.9c0-0.5,0.4-1,0.9-1c0.5,0,1,0.3,1.1,0.9C52.3,168,51.9,168.5,51.4,168.5z M28.3,151.7c0-0.3,5.4-1.7,11.9-1
	c6.2-1.5,11.5-0.9,11.6-0.6c0,0.2-3.1,0.1-7.7,1.3c1.9,0.5,3.8,1.1,5.6,2.1c5,2.6,8,6.5,7.6,6.9c-0.4,0.5-6-4.9-15.6-7.4
	c-0.5-0.1-1-0.3-1.5-0.4c-0.5,0.2-1.1,0.4-1.6,0.6c-9.1,3.8-13.9,9.9-14.4,9.5c-0.4-0.4,2-4.6,6.6-7.9c1.7-1.2,3.6-2.2,5.5-2.9
	C31.4,151.3,28.3,151.9,28.3,151.7z"/>
<radialGradient id="SVGID_15_" cx="33.8586" cy="155.6853" r="44.9794" fx="35.5787" fy="156.793" gradientTransform="matrix(1.0677 -7.457831e-02 7.532636e-02 1.0784 -10.2723 -17.4178)" gradientUnits="userSpaceOnUse">
	<stop  offset="0" style="stop-color:#A51E22;stop-opacity:0.6512"/>
	<stop  offset="0" style="stop-color:#A51E22;stop-opacity:0.9"/>
	<stop  offset="0.7012" style="stop-color:#A51E22;stop-opacity:0.6512"/>
	<stop  offset="1" style="stop-color:#FFCC5F;stop-opacity:0.9"/>
</radialGradient>
<path class="st28" d="M21.6,194.9c0.1,0,0.1,0,0.2,0.1c5.3,1.6,7.3,0.5,22.4-0.6c13-1,15.9-0.5,20.8-3.1c0,0,0.1,0,0.1-0.1
	c6.6-3.6,10.1-11.1,8.7-18.6c0-0.2-0.1-0.6-0.2-1.1c-0.3-1.7-1-4.8-3.2-8.4c-2.1-3.4-5.5-6.9-9.8-9.8c0,0,0,0,0.1-0.1
	c-1.7-1.1-3.5-2.2-5.5-3.1c0,0,0,0.1,0,0.1c-4.8-2.1-10.3-3.2-16.4-2.7c-5.3,0.4-10,2-14,4.3c0,0,0,0,0,0
	c-7,4.1-11.7,10.2-13.9,14.8c-1.7,3.5-1.9,6.1-2.1,6.9c-1.1,6.2,0.9,12.3,5,16.5C15.9,192.4,18.6,194,21.6,194.9z M30.3,170.2
	c-0.5,0-1-0.3-1.1-0.9c0-0.5,0.4-1,0.9-1c0.5,0,1,0.3,1.1,0.9C31.3,169.7,30.8,170.1,30.3,170.2z M41.9,178.1l0.3,2.8L41.9,178.1
	C41.9,178.1,41.9,178.1,41.9,178.1c-2.4,0.2-4.2-1.8-3.9-2.8c0.4-1.5,6.3-2.1,7-0.7C45.6,175.4,44.3,177.8,41.9,178.1z M51.4,168.5
	c-0.5,0-1-0.3-1.1-0.9c0-0.5,0.4-1,0.9-1c0.5,0,1,0.3,1.1,0.9C52.3,168,51.9,168.5,51.4,168.5z M28.3,151.7c0-0.3,5.4-1.7,11.9-1
	c6.2-1.5,11.5-0.9,11.6-0.6c0,0.2-3.1,0.1-7.7,1.3c1.9,0.5,3.8,1.1,5.6,2.1c5,2.6,8,6.5,7.6,6.9c-0.4,0.5-6-4.9-15.6-7.4
	c-0.5-0.1-1-0.3-1.5-0.4c-0.5,0.2-1.1,0.4-1.6,0.6c-9.1,3.8-13.9,9.9-14.4,9.5c-0.4-0.4,2-4.6,6.6-7.9c1.7-1.2,3.6-2.2,5.5-2.9
	C31.4,151.3,28.3,151.9,28.3,151.7z"/>
<radialGradient id="SVGID_16_" cx="33.7309" cy="163.0939" r="28.0883" fx="34.7556" fy="163.857" gradientTransform="matrix(0.6896 0.8277 -0.8015 0.6808 145.4923 16.9877)" gradientUnits="userSpaceOnUse">
	<stop  offset="0" style="stop-color:#A51E22;stop-opacity:0.9"/>
	<stop  offset="0.7012" style="stop-color:#A51E22;stop-opacity:0.6512"/>
	<stop  offset="1" style="stop-color:#FFCC5F;stop-opacity:0.9"/>
</radialGradient>
<path class="st29" d="M21.6,194.9c0.1,0,0.1,0,0.2,0.1c5.3,1.6,7.3,0.5,22.4-0.6c13-1,15.9-0.5,20.8-3.1c0,0,0.1,0,0.1-0.1
	c6.6-3.6,10.1-11.1,8.7-18.6c0-0.2-0.1-0.6-0.2-1.1c-0.3-1.7-1-4.8-3.2-8.4c-2.1-3.4-5.5-6.9-9.8-9.8c0,0,0,0,0.1-0.1
	c-1.7-1.1-3.5-2.2-5.5-3.1c0,0,0,0.1,0,0.1c-4.8-2.1-10.3-3.2-16.4-2.7c-5.3,0.4-10,2-14,4.3c0,0,0,0,0,0
	c-7,4.1-11.7,10.2-13.9,14.8c-1.7,3.5-1.9,6.1-2.1,6.9c-1.1,6.2,0.9,12.3,5,16.5C15.9,192.4,18.6,194,21.6,194.9z M30.3,170.2
	c-0.5,0-1-0.3-1.1-0.9c0-0.5,0.4-1,0.9-1c0.5,0,1,0.3,1.1,0.9C31.3,169.7,30.8,170.1,30.3,170.2z M41.9,178.1l0.3,2.8L41.9,178.1
	C41.9,178.1,41.9,178.1,41.9,178.1c-2.4,0.2-4.2-1.8-3.9-2.8c0.4-1.5,6.3-2.1,7-0.7C45.6,175.4,44.3,177.8,41.9,178.1z M51.4,168.5
	c-0.5,0-1-0.3-1.1-0.9c0-0.5,0.4-1,0.9-1c0.5,0,1,0.3,1.1,0.9C52.3,168,51.9,168.5,51.4,168.5z M28.3,151.7c0-0.3,5.4-1.7,11.9-1
	c6.2-1.5,11.5-0.9,11.6-0.6c0,0.2-3.1,0.1-7.7,1.3c1.9,0.5,3.8,1.1,5.6,2.1c5,2.6,8,6.5,7.6,6.9c-0.4,0.5-6-4.9-15.6-7.4
	c-0.5-0.1-1-0.3-1.5-0.4c-0.5,0.2-1.1,0.4-1.6,0.6c-9.1,3.8-13.9,9.9-14.4,9.5c-0.4-0.4,2-4.6,6.6-7.9c1.7-1.2,3.6-2.2,5.5-2.9
	C31.4,151.3,28.3,151.9,28.3,151.7z"/>
<ellipse transform="matrix(0.9976 -6.968176e-02 6.968176e-02 0.9976 -11.7199 2.5181)" cx="30.2" cy="169.2" rx="1" ry="0.9"/>
<ellipse transform="matrix(0.9976 -6.968176e-02 6.968176e-02 0.9976 -11.5522 3.9824)" cx="51.3" cy="167.6" rx="1" ry="0.9"/>
<path d="M38,175.3c-0.3,1,1.5,3,3.8,2.8c0,0,0.1,0,0.1,0l-0.1-1.2l0.1,1.2c2.3-0.3,3.6-2.6,3.2-3.5C44.3,173.1,38.5,173.7,38,175.3z
	"/>
<line class="st30" x1="42.2" y1="180.9" x2="41.9" y2="178.1"/>
<line class="st30" x1="41.9" y1="178.1" x2="41.8" y2="176.8"/>
<g>
	<path class="st13" d="M24.2,162.7c0.5,0.4,5.3-5.7,14.4-9.5c0.6-0.2,1.1-0.4,1.6-0.6c-1.4-0.3-2.7-0.5-3.9-0.7
		c-1.9,0.7-3.7,1.7-5.5,2.9C26.2,158.1,23.8,162.3,24.2,162.7z"/>
	<path class="st13" d="M51.7,150.1c0-0.3-5.4-0.9-11.6,0.6c1.3,0.1,2.6,0.4,3.9,0.7C48.7,150.2,51.8,150.3,51.7,150.1z"/>
	<path class="st13" d="M41.7,152.9c9.6,2.5,15.1,7.9,15.6,7.4c0.4-0.4-2.6-4.3-7.6-6.9c-1.8-0.9-3.7-1.6-5.6-2.1
		c-1.3-0.3-2.6-0.5-3.9-0.7c-6.5-0.7-11.9,0.7-11.9,1c0,0.2,3.2-0.4,8,0.2c1.2,0.1,2.5,0.4,3.9,0.7
		C40.7,152.7,41.2,152.8,41.7,152.9z"/>
</g>
<path class="st13" d="M231.8,201.9c5.8-5.7,5.5-14.1,3.1-14.7c-2.7-0.6-10.7,8-13.8,13.9c1.6,1.5,3,3.2,4.1,4.8
	C227.4,205.2,229.9,203.9,231.8,201.9z"/>
<path class="st13" d="M194.1,171.7c-2-1.4-8.7,3.9-9.3,11.9c-0.3,3.8,0.9,7.6,2.4,9.6c1.5-0.5,3.1-0.9,4.8-1.1
	C194.8,186.3,196.6,173.3,194.1,171.7z"/>
<path class="st13" d="M169.7,206.3c0.6-1.1,1.8-3,4-5.2C171.4,203.2,170.2,205.2,169.7,206.3z"/>
<radialGradient id="SVGID_17_" cx="473.6852" cy="-556.2584" r="239.4998" fx="482.8444" fy="-550.3602" gradientTransform="matrix(0.203 6.594104e-02 -6.224165e-02 0.1887 75.5598 266.8719)" gradientUnits="userSpaceOnUse">
	<stop  offset="0" style="stop-color:#A51E22;stop-opacity:0.6512"/>
	<stop  offset="0" style="stop-color:#A51E22;stop-opacity:0.9"/>
	<stop  offset="0.7012" style="stop-color:#A51E22;stop-opacity:0.6512"/>
	<stop  offset="1" style="stop-color:#FFCC5F;stop-opacity:0.9"/>
</radialGradient>
<path class="st31" d="M187.3,193.3C187.3,193.2,187.3,193.2,187.3,193.3c-5.9,1.7-10.6,4.8-13.7,7.8
	C176.8,198,181.6,195,187.3,193.3z"/>
<radialGradient id="SVGID_18_" cx="473.6852" cy="-556.2584" r="239.4998" fx="482.8444" fy="-550.3602" gradientTransform="matrix(0.203 6.594104e-02 -6.224165e-02 0.1887 75.5598 266.8719)" gradientUnits="userSpaceOnUse">
	<stop  offset="0" style="stop-color:#A51E22;stop-opacity:0.6512"/>
	<stop  offset="0" style="stop-color:#A51E22;stop-opacity:0.9"/>
	<stop  offset="0.7012" style="stop-color:#A51E22;stop-opacity:0.6512"/>
	<stop  offset="1" style="stop-color:#FFCC5F;stop-opacity:0.9"/>
</radialGradient>
<path class="st32" d="M207.5,193.1c1.9,0.6,3.6,1.3,5.2,2c-1.8-0.9-3.8-1.7-6-2.3c-5.2-1.5-10.2-1.6-14.7-0.8c0,0,0,0.1-0.1,0.1
	C196.7,191.4,201.9,191.5,207.5,193.1z"/>
<radialGradient id="SVGID_19_" cx="473.6852" cy="-556.2584" r="239.4998" fx="482.8444" fy="-550.3602" gradientTransform="matrix(0.203 6.594104e-02 -6.224165e-02 0.1887 75.5598 266.8719)" gradientUnits="userSpaceOnUse">
	<stop  offset="0" style="stop-color:#A51E22;stop-opacity:0.6512"/>
	<stop  offset="0" style="stop-color:#A51E22;stop-opacity:0.9"/>
	<stop  offset="0.7012" style="stop-color:#A51E22;stop-opacity:0.6512"/>
	<stop  offset="1" style="stop-color:#FFCC5F;stop-opacity:0.9"/>
</radialGradient>
<path class="st33" d="M169.3,206.8c0.1-0.1,0.2-0.3,0.3-0.6C169.5,206.5,169.4,206.7,169.3,206.8z"/>
<path class="st13" d="M169.4,207c0.4-0.7,1.6-3.1,4.3-5.8c3.7-3.6,10.2-7.7,18.2-9.1c0,0,0-0.1,0.1-0.1c-1.7,0.3-3.2,0.7-4.8,1.1
	c0,0,0,0.1,0.1,0.1c-5.7,1.7-10.5,4.7-13.7,7.8c-2.3,2.2-3.4,4.2-4,5.2c-0.1,0.2-0.2,0.4-0.3,0.6c-3.2,5.5-3.4,12-0.9,17.5
	C166.1,218.9,166.3,212.5,169.4,207z"/>
<radialGradient id="SVGID_20_" cx="473.6852" cy="-556.2584" r="239.4998" fx="482.8444" fy="-550.3602" gradientTransform="matrix(0.203 6.594104e-02 -6.224165e-02 0.1887 75.5598 266.8719)" gradientUnits="userSpaceOnUse">
	<stop  offset="0" style="stop-color:#A51E22;stop-opacity:0.6512"/>
	<stop  offset="0" style="stop-color:#A51E22;stop-opacity:0.9"/>
	<stop  offset="0.7012" style="stop-color:#A51E22;stop-opacity:0.6512"/>
	<stop  offset="1" style="stop-color:#FFCC5F;stop-opacity:0.9"/>
</radialGradient>
<path class="st34" d="M169.4,207c0.4-0.7,1.6-3.1,4.3-5.8c3.7-3.6,10.2-7.7,18.2-9.1c0,0,0-0.1,0.1-0.1c-1.7,0.3-3.2,0.7-4.8,1.1
	c0,0,0,0.1,0.1,0.1c-5.7,1.7-10.5,4.7-13.7,7.8c-2.3,2.2-3.4,4.2-4,5.2c-0.1,0.2-0.2,0.4-0.3,0.6c-3.2,5.5-3.4,12-0.9,17.5
	C166.1,218.9,166.3,212.5,169.4,207z"/>
<radialGradient id="SVGID_21_" cx="473.0449" cy="-515.598" r="148.3579" fx="478.4572" fy="-511.5673" gradientTransform="matrix(6.926037e-02 0.1913 -0.1966 5.660618e-02 69.5802 139.4624)" gradientUnits="userSpaceOnUse">
	<stop  offset="0" style="stop-color:#A51E22;stop-opacity:0.9"/>
	<stop  offset="0.7012" style="stop-color:#A51E22;stop-opacity:0.6512"/>
	<stop  offset="1" style="stop-color:#FFCC5F;stop-opacity:0.9"/>
</radialGradient>
<path class="st35" d="M221.1,201.1c-2.4-2.3-5.2-4.3-8.4-6C216,196.8,218.7,198.9,221.1,201.1C221.1,201.2,221.1,201.2,221.1,201.1z
	"/>
<radialGradient id="SVGID_22_" cx="473.0449" cy="-515.598" r="148.3579" fx="478.4572" fy="-511.5673" gradientTransform="matrix(6.926037e-02 0.1913 -0.1966 5.660618e-02 69.5802 139.4624)" gradientUnits="userSpaceOnUse">
	<stop  offset="0" style="stop-color:#A51E22;stop-opacity:0.9"/>
	<stop  offset="0.7012" style="stop-color:#A51E22;stop-opacity:0.6512"/>
	<stop  offset="1" style="stop-color:#FFCC5F;stop-opacity:0.9"/>
</radialGradient>
<path class="st36" d="M231,228.8c0.2-1,1.2-4.7,0.1-10c-0.8-3.8-2.6-8.4-5.8-12.8c0,0,0,0,0,0c3,4.3,4.9,8.8,5.7,12.6
	c0.9,4.1,0.4,7.3,0.1,9c-0.1,0.5-0.2,0.8-0.2,1c-1.3,7.5-7.2,13.4-14.6,14.4c0,0-0.1,0-0.1,0c-5.5,0.8-8.1-0.7-20.6-4.3
	c-14.6-4.2-16.8-3.9-21.2-7.2c0,0-0.1-0.1-0.1-0.1c-2.5-1.9-4.5-4.4-5.7-7.2c1.2,2.8,3.2,5.4,5.8,7.4c0,0,0.1,0.1,0.1,0.1
	c4.5,3.3,6.7,3,21.2,7.2c12.6,3.6,15.1,5.1,20.6,4.3c0,0,0.1,0,0.1,0C223.8,242.2,229.7,236.3,231,228.8z"/>
<path class="st13" d="M225.2,206C225.3,206,225.3,206,225.2,206c-1.1-1.7-2.5-3.3-4.1-4.8c0,0,0,0,0,0
	C222.7,202.7,224,204.3,225.2,206z"/>
<radialGradient id="SVGID_23_" cx="473.0449" cy="-515.598" r="148.3579" fx="478.4572" fy="-511.5673" gradientTransform="matrix(6.926037e-02 0.1913 -0.1966 5.660618e-02 69.5802 139.4624)" gradientUnits="userSpaceOnUse">
	<stop  offset="0" style="stop-color:#A51E22;stop-opacity:0.9"/>
	<stop  offset="0.7012" style="stop-color:#A51E22;stop-opacity:0.6512"/>
	<stop  offset="1" style="stop-color:#FFCC5F;stop-opacity:0.9"/>
</radialGradient>
<path class="st37" d="M225.2,206C225.3,206,225.3,206,225.2,206c-1.1-1.7-2.5-3.3-4.1-4.8c0,0,0,0,0,0
	C222.7,202.7,224,204.3,225.2,206z"/>
<path class="st13" d="M231,218.6c0.9,4.1,0.4,7.3,0.1,9C231.4,225.9,231.8,222.7,231,218.6z"/>
<radialGradient id="SVGID_24_" cx="473.0449" cy="-515.598" r="148.3579" fx="478.4572" fy="-511.5673" gradientTransform="matrix(6.926037e-02 0.1913 -0.1966 5.660618e-02 69.5802 139.4624)" gradientUnits="userSpaceOnUse">
	<stop  offset="0" style="stop-color:#A51E22;stop-opacity:0.9"/>
	<stop  offset="0.7012" style="stop-color:#A51E22;stop-opacity:0.6512"/>
	<stop  offset="1" style="stop-color:#FFCC5F;stop-opacity:0.9"/>
</radialGradient>
<path class="st38" d="M231,218.6c0.9,4.1,0.4,7.3,0.1,9C231.4,225.9,231.8,222.7,231,218.6z"/>
<radialGradient id="SVGID_25_" cx="473.6852" cy="-556.2584" r="239.4998" fx="482.8444" fy="-550.3602" gradientTransform="matrix(0.203 6.594104e-02 -6.224165e-02 0.1887 75.5598 266.8719)" gradientUnits="userSpaceOnUse">
	<stop  offset="0" style="stop-color:#A51E22;stop-opacity:0.6512"/>
	<stop  offset="0" style="stop-color:#A51E22;stop-opacity:0.9"/>
	<stop  offset="0.7012" style="stop-color:#A51E22;stop-opacity:0.6512"/>
	<stop  offset="1" style="stop-color:#FFCC5F;stop-opacity:0.9"/>
</radialGradient>
<path class="st39" d="M192,192.2C192,192.2,192,192.2,192,192.2c4.5-0.7,9.5-0.6,14.6,0.9c5.9,1.7,10.7,4.7,14.4,8.3
	c0,0,0-0.1,0.1-0.1c-2.4-2.3-5.2-4.4-8.4-6c-1.6-0.8-3.4-1.5-5.2-2C201.9,191.5,196.7,191.4,192,192.2z"/>
<radialGradient id="SVGID_26_" cx="473.0449" cy="-515.598" r="148.3579" fx="478.4572" fy="-511.5673" gradientTransform="matrix(6.926037e-02 0.1913 -0.1966 5.660618e-02 69.5802 139.4624)" gradientUnits="userSpaceOnUse">
	<stop  offset="0" style="stop-color:#A51E22;stop-opacity:0.9"/>
	<stop  offset="0.7012" style="stop-color:#A51E22;stop-opacity:0.6512"/>
	<stop  offset="1" style="stop-color:#FFCC5F;stop-opacity:0.9"/>
</radialGradient>
<path class="st40" d="M192,192.2C192,192.2,192,192.2,192,192.2c4.5-0.7,9.5-0.6,14.6,0.9c5.9,1.7,10.7,4.7,14.4,8.3
	c0,0,0-0.1,0.1-0.1c-2.4-2.3-5.2-4.4-8.4-6c-1.6-0.8-3.4-1.5-5.2-2C201.9,191.5,196.7,191.4,192,192.2z"/>
<radialGradient id="SVGID_27_" cx="473.6852" cy="-556.2584" r="239.4998" fx="482.8444" fy="-550.3602" gradientTransform="matrix(0.203 6.594104e-02 -6.224165e-02 0.1887 75.5598 266.8719)" gradientUnits="userSpaceOnUse">
	<stop  offset="0" style="stop-color:#A51E22;stop-opacity:0.6512"/>
	<stop  offset="0" style="stop-color:#A51E22;stop-opacity:0.9"/>
	<stop  offset="0.7012" style="stop-color:#A51E22;stop-opacity:0.6512"/>
	<stop  offset="1" style="stop-color:#FFCC5F;stop-opacity:0.9"/>
</radialGradient>
<path class="st41" d="M231.1,227.6c-0.1,0.5-0.2,0.8-0.2,1C230.9,228.4,231,228,231.1,227.6z"/>
<radialGradient id="SVGID_28_" cx="473.0449" cy="-515.598" r="148.3579" fx="478.4572" fy="-511.5673" gradientTransform="matrix(6.926037e-02 0.1913 -0.1966 5.660618e-02 69.5802 139.4624)" gradientUnits="userSpaceOnUse">
	<stop  offset="0" style="stop-color:#A51E22;stop-opacity:0.9"/>
	<stop  offset="0.7012" style="stop-color:#A51E22;stop-opacity:0.6512"/>
	<stop  offset="1" style="stop-color:#FFCC5F;stop-opacity:0.9"/>
</radialGradient>
<path class="st42" d="M231.1,227.6c-0.1,0.5-0.2,0.8-0.2,1C230.9,228.4,231,228,231.1,227.6z"/>
<radialGradient id="SVGID_29_" cx="473.6852" cy="-556.2584" r="239.4998" fx="482.8444" fy="-550.3602" gradientTransform="matrix(0.203 6.594104e-02 -6.224165e-02 0.1887 75.5598 266.8719)" gradientUnits="userSpaceOnUse">
	<stop  offset="0" style="stop-color:#A51E22;stop-opacity:0.6512"/>
	<stop  offset="0" style="stop-color:#A51E22;stop-opacity:0.9"/>
	<stop  offset="0.7012" style="stop-color:#A51E22;stop-opacity:0.6512"/>
	<stop  offset="1" style="stop-color:#FFCC5F;stop-opacity:0.9"/>
</radialGradient>
<path class="st43" d="M231,218.6c-0.8-3.8-2.7-8.3-5.7-12.6c0,0-0.1,0-0.1,0C228.2,210.2,230.1,214.7,231,218.6z"/>
<radialGradient id="SVGID_30_" cx="473.0449" cy="-515.598" r="148.3579" fx="478.4572" fy="-511.5673" gradientTransform="matrix(6.926037e-02 0.1913 -0.1966 5.660618e-02 69.5802 139.4624)" gradientUnits="userSpaceOnUse">
	<stop  offset="0" style="stop-color:#A51E22;stop-opacity:0.9"/>
	<stop  offset="0.7012" style="stop-color:#A51E22;stop-opacity:0.6512"/>
	<stop  offset="1" style="stop-color:#FFCC5F;stop-opacity:0.9"/>
</radialGradient>
<path class="st44" d="M231,218.6c-0.8-3.8-2.7-8.3-5.7-12.6c0,0-0.1,0-0.1,0C228.2,210.2,230.1,214.7,231,218.6z"/>
<path class="st13" d="M174.1,231.5c0,0,0.1,0.1,0.1,0.1c4.5,3.3,6.7,3,21.2,7.2c12.6,3.6,15.1,5.1,20.6,4.3c0,0,0.1,0,0.1,0
	c7.4-1.1,13.3-7,14.6-14.4c0-0.2,0.1-0.6,0.2-1c0.3-1.7,0.7-4.8-0.1-9c-0.8-3.9-2.7-8.4-5.8-12.6c0,0,0.1,0,0.1,0
	c-1.2-1.7-2.6-3.3-4.1-4.8c0,0,0,0.1-0.1,0.1c-3.7-3.6-8.5-6.6-14.4-8.3c-5.2-1.5-10.1-1.6-14.6-0.8c0,0,0,0,0,0
	c-8,1.4-14.5,5.5-18.2,9.1c-2.8,2.7-3.9,5-4.3,5.8c-3.2,5.4-3.4,11.9-1,17.3C169.6,227.1,171.6,229.5,174.1,231.5z M190.8,211.2
	c-0.5-0.2-0.8-0.7-0.7-1.2c0.1-0.5,0.7-0.8,1.2-0.6c0.5,0.2,0.8,0.7,0.7,1.2S191.4,211.4,190.8,211.2z M199,222.6l-0.7,2.8
	L199,222.6C199,222.6,199,222.6,199,222.6c-2.3-0.6-3.3-3.1-2.7-4c0.9-1.3,6.6,0.2,6.9,1.7C203.3,221.4,201.3,223.2,199,222.6z
	 M211.2,217c-0.5-0.2-0.8-0.7-0.7-1.2s0.7-0.8,1.2-0.6c0.5,0.2,0.8,0.7,0.7,1.2S211.7,217.1,211.2,217z M195.3,193.2
	c0.1-0.3,5.7,0.3,11.5,3.2c6.3,0.7,11.1,3.2,11,3.5c0,0.2-2.9-1-7.6-1.5c1.6,1.1,3.1,2.4,4.5,3.9c3.8,4.2,5.2,8.9,4.8,9.1
	c-0.6,0.3-4-6.6-12-12.3c-0.4-0.3-0.8-0.6-1.2-0.8c-0.6,0-1.1,0-1.7,0c-9.9,0.5-16.5,4.5-16.8,3.9c-0.3-0.5,3.5-3.7,8.9-5.1
	c2.1-0.6,4.2-0.8,6.2-0.8C198.4,193.9,195.3,193.4,195.3,193.2z"/>
<radialGradient id="SVGID_31_" cx="185.8401" cy="175.4892" r="44.9794" fx="187.5602" fy="176.5969" gradientTransform="matrix(1.0274 0.3 -0.303 1.0377 67.653 -44.9472)" gradientUnits="userSpaceOnUse">
	<stop  offset="0" style="stop-color:#A51E22;stop-opacity:0.6512"/>
	<stop  offset="0" style="stop-color:#A51E22;stop-opacity:0.9"/>
	<stop  offset="0.7012" style="stop-color:#A51E22;stop-opacity:0.6512"/>
	<stop  offset="1" style="stop-color:#FFCC5F;stop-opacity:0.9"/>
</radialGradient>
<path class="st45" d="M174.1,231.5c0,0,0.1,0.1,0.1,0.1c4.5,3.3,6.7,3,21.2,7.2c12.6,3.6,15.1,5.1,20.6,4.3c0,0,0.1,0,0.1,0
	c7.4-1.1,13.3-7,14.6-14.4c0-0.2,0.1-0.6,0.2-1c0.3-1.7,0.7-4.8-0.1-9c-0.8-3.9-2.7-8.4-5.8-12.6c0,0,0.1,0,0.1,0
	c-1.2-1.7-2.6-3.3-4.1-4.8c0,0,0,0.1-0.1,0.1c-3.7-3.6-8.5-6.6-14.4-8.3c-5.2-1.5-10.1-1.6-14.6-0.8c0,0,0,0,0,0
	c-8,1.4-14.5,5.5-18.2,9.1c-2.8,2.7-3.9,5-4.3,5.8c-3.2,5.4-3.4,11.9-1,17.3C169.6,227.1,171.6,229.5,174.1,231.5z M190.8,211.2
	c-0.5-0.2-0.8-0.7-0.7-1.2c0.1-0.5,0.7-0.8,1.2-0.6c0.5,0.2,0.8,0.7,0.7,1.2S191.4,211.4,190.8,211.2z M199,222.6l-0.7,2.8
	L199,222.6C199,222.6,199,222.6,199,222.6c-2.3-0.6-3.3-3.1-2.7-4c0.9-1.3,6.6,0.2,6.9,1.7C203.3,221.4,201.3,223.2,199,222.6z
	 M211.2,217c-0.5-0.2-0.8-0.7-0.7-1.2s0.7-0.8,1.2-0.6c0.5,0.2,0.8,0.7,0.7,1.2S211.7,217.1,211.2,217z M195.3,193.2
	c0.1-0.3,5.7,0.3,11.5,3.2c6.3,0.7,11.1,3.2,11,3.5c0,0.2-2.9-1-7.6-1.5c1.6,1.1,3.1,2.4,4.5,3.9c3.8,4.2,5.2,8.9,4.8,9.1
	c-0.6,0.3-4-6.6-12-12.3c-0.4-0.3-0.8-0.6-1.2-0.8c-0.6,0-1.1,0-1.7,0c-9.9,0.5-16.5,4.5-16.8,3.9c-0.3-0.5,3.5-3.7,8.9-5.1
	c2.1-0.6,4.2-0.8,6.2-0.8C198.4,193.9,195.3,193.4,195.3,193.2z"/>
<radialGradient id="SVGID_32_" cx="185.7124" cy="182.8978" r="28.0883" fx="186.7371" fy="183.6609" gradientTransform="matrix(0.3601 1.0153 -0.9878 0.3609 316.8237 -54.0144)" gradientUnits="userSpaceOnUse">
	<stop  offset="0" style="stop-color:#A51E22;stop-opacity:0.9"/>
	<stop  offset="0.7012" style="stop-color:#A51E22;stop-opacity:0.6512"/>
	<stop  offset="1" style="stop-color:#FFCC5F;stop-opacity:0.9"/>
</radialGradient>
<path class="st46" d="M174.1,231.5c0,0,0.1,0.1,0.1,0.1c4.5,3.3,6.7,3,21.2,7.2c12.6,3.6,15.1,5.1,20.6,4.3c0,0,0.1,0,0.1,0
	c7.4-1.1,13.3-7,14.6-14.4c0-0.2,0.1-0.6,0.2-1c0.3-1.7,0.7-4.8-0.1-9c-0.8-3.9-2.7-8.4-5.8-12.6c0,0,0.1,0,0.1,0
	c-1.2-1.7-2.6-3.3-4.1-4.8c0,0,0,0.1-0.1,0.1c-3.7-3.6-8.5-6.6-14.4-8.3c-5.2-1.5-10.1-1.6-14.6-0.8c0,0,0,0,0,0
	c-8,1.4-14.5,5.5-18.2,9.1c-2.8,2.7-3.9,5-4.3,5.8c-3.2,5.4-3.4,11.9-1,17.3C169.6,227.1,171.6,229.5,174.1,231.5z M190.8,211.2
	c-0.5-0.2-0.8-0.7-0.7-1.2c0.1-0.5,0.7-0.8,1.2-0.6c0.5,0.2,0.8,0.7,0.7,1.2S191.4,211.4,190.8,211.2z M199,222.6l-0.7,2.8
	L199,222.6C199,222.6,199,222.6,199,222.6c-2.3-0.6-3.3-3.1-2.7-4c0.9-1.3,6.6,0.2,6.9,1.7C203.3,221.4,201.3,223.2,199,222.6z
	 M211.2,217c-0.5-0.2-0.8-0.7-0.7-1.2s0.7-0.8,1.2-0.6c0.5,0.2,0.8,0.7,0.7,1.2S211.7,217.1,211.2,217z M195.3,193.2
	c0.1-0.3,5.7,0.3,11.5,3.2c6.3,0.7,11.1,3.2,11,3.5c0,0.2-2.9-1-7.6-1.5c1.6,1.1,3.1,2.4,4.5,3.9c3.8,4.2,5.2,8.9,4.8,9.1
	c-0.6,0.3-4-6.6-12-12.3c-0.4-0.3-0.8-0.6-1.2-0.8c-0.6,0-1.1,0-1.7,0c-9.9,0.5-16.5,4.5-16.8,3.9c-0.3-0.5,3.5-3.7,8.9-5.1
	c2.1-0.6,4.2-0.8,6.2-0.8C198.4,193.9,195.3,193.4,195.3,193.2z"/>
<ellipse transform="matrix(0.2803 -0.9599 0.9599 0.2803 -64.3617 334.8218)" cx="191.1" cy="210.3" rx="0.9" ry="1"/>
<ellipse transform="matrix(0.2803 -0.9599 0.9599 0.2803 -55.2237 358.4779)" cx="211.5" cy="216.1" rx="0.9" ry="1"/>
<path d="M196.3,218.7c-0.6,0.8,0.4,3.3,2.6,3.9c0,0,0.1,0,0.1,0l0.3-1.2l-0.3,1.2c2.3,0.6,4.3-1.2,4.2-2.2
	C203,218.9,197.3,217.4,196.3,218.7z"/>
<line class="st30" x1="198.3" y1="225.4" x2="199" y2="222.6"/>
<line class="st30" x1="199" y1="222.6" x2="199.3" y2="221.4"/>
<g>
	<path class="st13" d="M187.7,202.1c0.3,0.6,6.9-3.5,16.8-3.9c0.6,0,1.2,0,1.7,0c-1.2-0.8-2.4-1.4-3.5-2c-2,0-4.1,0.3-6.2,0.8
		C191.2,198.4,187.5,201.6,187.7,202.1z"/>
	<path class="st13" d="M217.9,199.8c0.1-0.3-4.7-2.7-11-3.5c1.1,0.6,2.3,1.2,3.4,2C215,198.8,217.9,200,217.9,199.8z"/>
	<path class="st13" d="M207.5,199c8.1,5.7,11.4,12.7,12,12.3c0.5-0.3-1-5-4.8-9.1c-1.4-1.5-2.9-2.8-4.5-3.9c-1.1-0.8-2.3-1.4-3.4-2
		c-5.9-2.9-11.4-3.5-11.5-3.2c-0.1,0.2,3.1,0.8,7.5,3c1.1,0.6,2.3,1.2,3.5,2C206.7,198.4,207.1,198.7,207.5,199z"/>
</g>
<path class="st47" d="M7.8,147c0.2,0.1-1,6.2,0.3,8.6c0.8,1.5,2.2,0.8,2.3,1.7c0.1,0.9-1.4,1.4-2.5,3.7c-1.6,3.5-1.1,8.8-1.3,8.8
	c-0.2,0,0.5-6-1.2-9.1c-1-1.9-2.5-1.9-2.5-2.8c0-1,1.5-0.8,2.8-2.8C7.5,152.2,7.6,146.9,7.8,147z"/>
<path class="st47" d="M80.8,177.7c0.2,0.1-1,6.2,0.3,8.6c0.8,1.5,2.2,0.8,2.3,1.7c0.1,0.9-1.4,1.4-2.5,3.7c-1.6,3.5-1.1,8.8-1.3,8.8
	c-0.2,0,0.5-6-1.2-9.1c-1-1.9-2.5-1.9-2.5-2.8c0-1,1.5-0.8,2.8-2.8C80.5,182.9,80.6,177.7,80.8,177.7z"/>
<path class="st47" d="M227,226.7c0.2,0.1-1,6.2,0.3,8.6c0.8,1.5,2.2,0.8,2.3,1.7c0.1,0.9-1.4,1.4-2.5,3.7c-1.6,3.5-1.1,8.8-1.3,8.8
	c-0.2,0,0.5-6-1.2-9.1c-1-1.9-2.5-1.9-2.5-2.8c0-1,1.5-0.8,2.8-2.8C226.8,231.9,226.9,226.7,227,226.7z"/>
<path class="st47" d="M171.5,174.5c0.2,0.1-1,6.2,0.3,8.6c0.8,1.5,2.2,0.8,2.3,1.7c0.1,0.9-1.4,1.4-2.5,3.7
	c-1.6,3.5-1.1,8.8-1.3,8.8c-0.2,0,0.5-6-1.2-9.1c-1-1.9-2.5-1.9-2.5-2.8c0-1,1.5-0.8,2.8-2.8C171.3,179.7,171.4,174.4,171.5,174.5z"
	/>
<path class="st47" d="M233,175c0.2,0.1-1,6.2,0.3,8.6c0.8,1.5,2.2,0.8,2.3,1.7c0.1,0.9-1.4,1.4-2.5,3.7c-1.6,3.5-1.1,8.8-1.3,8.8
	c-0.2,0,0.5-6-1.2-9.1c-1-1.9-2.5-1.9-2.5-2.8c0-1,1.5-0.8,2.8-2.8C232.8,180.2,232.9,174.9,233,175z"/>
<path class="st48" d="M152.5,271.2c0.9,10.2-10.7,25-13.3,23.2c-1.8-1.3,0.5-11.7,3.9-18.8c0.5-1,4.7-9.8,7.4-8.9
	C152.1,267.2,152.4,270.7,152.5,271.2z"/>
<path class="st49" d="M149.7,266.7c0.5,0,0.6,0.5,1.7,1.5c1.1,0.9,1.8,1.1,1.8,1.5c0,0.4-0.6,0.8-1.1,0.9c-1.4,0.5-3.6-0.5-3.7-1.9
	C148.4,267.7,149,266.7,149.7,266.7z"/>
<path class="st50" d="M150.9,268.8c-1.7-1.4-2.1-2.7-2.2-3.4c-0.6-5,8.9-9.9,10.4-8.4c0.6,0.6-0.6,1.7-2,7.8
	c-0.3,1.5-0.5,2.4-1.3,3.2C154.4,269.3,152,269,150.9,268.8z"/>
<linearGradient id="SVGID_33_" gradientUnits="userSpaceOnUse" x1="149.0176" y1="250.7933" x2="157.3007" y2="250.7933" gradientTransform="matrix(0.9944 0.1052 -0.1052 0.9944 27.2786 -5.5972)">
	<stop  offset="0" style="stop-color:#A51E22;stop-opacity:0.9"/>
	<stop  offset="0.2599" style="stop-color:#A51E22;stop-opacity:0.7549"/>
	<stop  offset="0.5635" style="stop-color:#A51E22;stop-opacity:0.6512"/>
	<stop  offset="0.9934" style="stop-color:#FFCC5F;stop-opacity:0.9"/>
</linearGradient>
<path class="st51" d="M160.4,256.2c-0.4-0.7-2.7-0.1-3.4,0.1c-1,0.3-2.6,0.9-4.3,2.1c-0.3,0.4-0.9,1.3-1,2.7c-0.2,1.7,0.6,3,0.9,3.4
	c0.2,0,0.5,0.1,0.7,0c0.7-0.4,0.2-1.7,1.1-2.4c0.3-0.3,0.9-0.5,1.3-0.4c0.4,0.1,0.5,0.3,0.8,0.4c0.4,0.2,1.1-0.1,2.6-1.9
	c0.2-0.5,0.5-1.2,0.9-2C160.5,256.7,160.5,256.4,160.4,256.2z"/>
<linearGradient id="SVGID_34_" gradientUnits="userSpaceOnUse" x1="158.0809" y1="243.0379" x2="169.0624" y2="243.0379" gradientTransform="matrix(0.9944 0.1052 -0.1052 0.9944 27.2786 -5.5972)">
	<stop  offset="0" style="stop-color:#A51E22;stop-opacity:0.9"/>
	<stop  offset="0.2599" style="stop-color:#A51E22;stop-opacity:0.7549"/>
	<stop  offset="0.5635" style="stop-color:#A51E22;stop-opacity:0.6512"/>
	<stop  offset="0.9934" style="stop-color:#FFCC5F;stop-opacity:0.9"/>
</linearGradient>
<path class="st52" d="M162.2,255.7c-0.1-0.6,1.9-1.6,6-3.8c2.6-1.3,3.4-1.6,4.1-1.2c1.1,0.6,1.5,2.6,0.9,3.9
	C171.6,258,162.5,257.2,162.2,255.7z"/>
<linearGradient id="SVGID_35_" gradientUnits="userSpaceOnUse" x1="160.8985" y1="249.6579" x2="165.0435" y2="249.6579" gradientTransform="matrix(0.9944 0.1052 -0.1052 0.9944 27.2786 -5.5972)">
	<stop  offset="0" style="stop-color:#A51E22;stop-opacity:0.9"/>
	<stop  offset="0.2599" style="stop-color:#A51E22;stop-opacity:0.7549"/>
	<stop  offset="0.5635" style="stop-color:#A51E22;stop-opacity:0.6512"/>
	<stop  offset="0.9934" style="stop-color:#FFCC5F;stop-opacity:0.9"/>
</linearGradient>
<path class="st53" d="M162.6,257.9c0.2-0.1,0.6,0.4,1.9,1c1.2,0.5,1.7,0.3,1.9,0.7c0.4,0.7-0.4,2.3-1.3,2.4
	C163.7,262,162.2,258.2,162.6,257.9z"/>
<path class="st54" d="M126.5,284.5c2.6-3.7,7.3-3.7,15.3-3.8c5.6-0.1,8.5-0.1,10.7,2c3.7,3.6,3.2,11.3-0.7,15.5
	c-2.8,2.9-6.5,3.3-10.2,3.7c-4.2,0.4-9.1,0.9-12.8-2.5C124.9,295.7,123.6,288.7,126.5,284.5z"/>
</svg>
