<?xml version="1.0" encoding="utf-8"?>
<!-- Generator: Adobe Illustrator 21.0.0, SVG Export Plug-In . SVG Version: 6.00 Build 0)  -->
<svg version="1.1" id="Layer_1" xmlns="http://www.w3.org/2000/svg" xmlns:xlink="http://www.w3.org/1999/xlink" x="0px" y="0px"
	 viewBox="0 0 234.9 275.1" style="enable-background:new 0 0 234.9 275.1;" xml:space="preserve">
<style type="text/css">
	.st0{fill:#57C9E9;stroke:#57C9E9;stroke-miterlimit:10;}
	.st1{fill:#90D4D4;stroke:#90D4D4;stroke-miterlimit:10;}
	.st2{fill:#BEE5E7;stroke:#BEE5E7;stroke-miterlimit:10;}
	.st3{fill:none;stroke:#D7C0AB;stroke-miterlimit:10;}
	.st4{fill:#D9CDC3;stroke:#D9CDC3;stroke-miterlimit:10;}
	.st5{fill:#939598;stroke:#808285;stroke-miterlimit:10;}
	.st6{fill:#E6E7E8;stroke:#E6E7E8;stroke-miterlimit:10;}
	.st7{fill:#F2F2F3;stroke:#F2F2F3;stroke-miterlimit:10;}
	.st8{stroke:#90D4D4;stroke-miterlimit:10;}
	.st9{fill:#F0689D;stroke:#F0689D;stroke-linecap:round;stroke-miterlimit:10;}
	.st10{fill:none;stroke:#000000;stroke-miterlimit:10;}
	.st11{fill:#F2748C;stroke:#F2748C;stroke-width:0.25;stroke-miterlimit:10;}
	.st12{fill:#FFFFFF;stroke:#FFFFFF;stroke-width:0.25;stroke-miterlimit:10;}
	.st13{fill:#F9CBDF;stroke:#F9CBDF;stroke-width:0.25;stroke-miterlimit:10;}
	.st14{fill:#FECD87;stroke:#FECD87;stroke-miterlimit:10;}
	.st15{fill:url(#SVGID_1_);stroke:#FECD87;stroke-miterlimit:10;}
	.st16{opacity:0.25;fill:url(#SVGID_2_);stroke:#FECD87;stroke-miterlimit:10;}
	.st17{stroke:#000000;stroke-linecap:round;stroke-miterlimit:10;}
	.st18{stroke:#000000;stroke-miterlimit:10;}
	.st19{fill:#FECD87;stroke:#FECD87;stroke-linecap:round;stroke-miterlimit:10;}
</style>
<path class="st0" d="M223.4,197"/>
<path class="st1" d="M134.7,161.6c1.8,5.1,9.5,6.6,22,9.2c11,2.2,18.7,3.8,24.4,0c2.9-1.9,7.5-6.7,6.2-10.5
	c-0.4-1.2-1.8-3.9-26.9-10c-13.6-3.3-16.5-3.3-19.3-2.1C135.9,150.5,133.1,157.3,134.7,161.6z"/>
<path class="st1" d="M148.4,219.4c5.3-5.1,15.9-5.3,20.6-0.5c4.4,4.4,0.2,9.4,2.6,26.5c1.3,9.2,3.1,11.7,1.1,14.8
	c-3.6,5.5-15.4,6.7-21.7,1.6c-4.1-3.4-4.5-9.1-5.3-20.6C145,229.1,144.6,223.1,148.4,219.4z"/>
<path class="st2" d="M112.6,132.4c11.3-6.1,24.4-0.9,25.4-0.5c16.9,7,21.7,27.8,28.6,57.7c4.7,20.3,7,30.5,2.6,38.1
	c-12.7,22-63.7,22.9-76.7,2.6c-2-3.1-3.2-6.9,0.5-34.4C100.7,140.2,108.8,134.4,112.6,132.4z"/>
<path class="st1" d="M150.7,142.4c-3.4-4.8-7.5-8.4-12.9-10.6c-1-0.4-14-5.4-25.2,0.5c-1.9,1-5,3-8.5,12
	C117.7,152.7,137.9,154.5,150.7,142.4z"/>
<line class="st3" x1="123.7" y1="147" x2="125.2" y2="158.2"/>
<line class="st3" x1="149.3" y1="141.8" x2="155.1" y2="151.5"/>
<path class="st3" d="M125.7,194.4c-4.9,0.5-11.8,0.7-19.8-1c-4.8-1-8.9-2.5-12.1-4"/>
<path class="st4" d="M124.9,157.8c18.7-12,27.9-8.1,30.2-6.9c8.2,4.3,4.7,13,15.3,47.6c4,13.1,5.6,16.9,2.8,21.5
	c-2.4,4-8.7,5.8-21.3,9.3c-11,3.1-15.5,2.9-19.3,1.8c-2.3-0.6-5.7-1.6-8.5-4.2c-3.9-3.6-3.6-7.9-2.9-34.9c0.3-10.2,0.5-17.2,2.2-27
	C123.9,162.5,124.4,160,124.9,157.8z"/>
<path class="st5" d="M200.4,181.7c-20.7-2.8-41.3-5.6-62-8.3c10.9-4.2,21.8-8.4,32.7-12.7c20.3,1.4,40.6,2.9,61,4.3
	C221.6,170.6,211,176.2,200.4,181.7z"/>
<path class="st2" d="M103.2,173.7c1.8,5.4,9.5,7,22.1,9.6c11.1,2.3,18.7,3.9,24.5-0.1c2.9-2,7.6-7.2,6.3-11.2
	c-0.4-1.3-1.8-4.2-27-10.5c-13.6-3.5-16.6-3.5-19.3-2.2C104.4,161.8,101.6,169.1,103.2,173.7z"/>
<path class="st2" d="M96.9,228.2c5.3-5.1,15.9-5.3,20.6-0.5c4.4,4.4,0.2,9.4,2.6,26.5c1.3,9.2,3.1,11.7,1.1,14.8
	c-3.6,5.5-15.4,6.7-21.7,1.6c-4.1-3.4-4.5-9.1-5.3-20.6C93.5,237.9,93,231.9,96.9,228.2z"/>
<path class="st3" d="M93.9,189.9c-0.3,1.8-4.1,3.1-7.2,2.2c-2.7-0.7-5.2-3.3-4.7-4.8c0.6-1.9,5.8-2.9,9.2-0.8
	C91.4,186.6,94.2,188.2,93.9,189.9z"/>
<path class="st3" d="M93.7,189.8c-1.1,0.9-4-0.3-5.4-2.2c-1.2-1.7-1.5-4.4-0.5-5.1c1.3-0.8,4.9,1.2,6,4.1
	C93.8,186.6,94.7,188.9,93.7,189.8z"/>
<path class="st2" d="M113.6,51.9c-4.5,0.8-7.6,2-8.3,2.3c-20.2,8.2-38.8,37-29.8,62.4c6.4,18.1,23.6,25.8,25.9,26.8
	c9.1,3.9,17.4,4,22.4,4c4.3,0,13.7,0,24.5-4.4c5.5-2.3,25.2-10.3,28.1-26.4c1-5.5-0.9-10.9-4.8-21.7c-5.4-15.1-8.1-22.7-14.4-29.1
	C145.9,54.2,128.6,49.3,113.6,51.9z"/>
<path class="st1" d="M43.4,32.1c1.8-7.9,40.9-14,65.8,7.5c8.5,7.4,19.8,21.8,16.1,26.8C117.4,77.4,40.6,43.9,43.4,32.1z"/>
<path class="st2" d="M1.7,100.3c0.9,8,39.1,18.4,66.2-0.2c9.3-6.4,22.1-19.5,19-24.9C80.2,63.4,0.3,88.3,1.7,100.3z"/>
<path class="st6" d="M148.8,61.6c0.9,5.1-15.7,15.1-33.3,17.9c-6.8,1.1-28.7,4.5-35.7-6.4c-3.6-5.7-1.4-12.5-1.3-12.9
	c7.2-21.3,61.9-22.8,65.6-13.6c0.9,2.3-0.8,6.8,2.4,11.8C147.8,60.6,148.6,60.6,148.8,61.6z"/>
<path class="st7" d="M138.2,48.4c-3.8,3.3-5.9,2.3-17.5,8.4c-10.5,5.5-10.9,7.5-18.5,11.4c-7.5,3.9-19.6,10.4-32.8,7.9
	c-10.7-2-23-10.2-22.4-18.8c0.4-6.5,8.1-12.1,10.7-14c4-2.9,7.2-4,9.5-4.9c12.5-5.3,15.1-15.5,23.1-23.2
	c11.9-11.4,36.9-18.1,48.9-7.6C150.2,17.2,148.1,39.6,138.2,48.4z"/>
<ellipse transform="matrix(0.9926 -0.121 0.121 0.9926 -10.55 15.5629)" class="st8" cx="122.8" cy="94.6" rx="4.3" ry="11.7"/>
<ellipse transform="matrix(0.9971 -7.669517e-02 7.669517e-02 0.9971 -6.2574 12.3782)" class="st8" cx="158" cy="87.7" rx="3.5" ry="10.5"/>
<circle class="st9" cx="120.8" cy="112.4" r="5.3"/>
<circle class="st9" cx="165.6" cy="100.4" r="4.6"/>
<path class="st10" d="M140.7,115.5c1.8,0,4.4-0.1,7.4-1.1c2.6-0.8,4.6-2,6-2.9"/>
<line class="st10" x1="148.6" y1="114.6" x2="149.1" y2="117.9"/>
<path class="st11" d="M123.7,125.7c-0.1-3.1,12.9-2.7,37-12c3.3-1.3,6-2.4,6.7-1.5c1.5,1.9-5.9,13.3-17.2,17.4
	C137.8,134.1,123.8,129,123.7,125.7z"/>
<path class="st12" d="M149.1,118.3c-0.4,0.5-0.3,1.3-0.1,2.9c0.1,1,0.2,1.5,0.5,1.7c1.1,0.9,4,0.7,5-0.4c0.6-0.6,0.4-1.4,0.1-2.9
	c-0.2-1.1-0.4-1.7-0.9-2C152.5,116.9,150,117.3,149.1,118.3z"/>
<path class="st12" d="M143.5,120.3c-0.4,0.5-0.3,1.4-0.1,3.1c0.1,1.1,0.2,1.6,0.5,1.9c1.2,1,4.3,0.8,5.5-0.3
	c0.6-0.7,0.5-1.5,0.1-3.1c-0.2-1.2-0.4-1.8-1-2.2C147.2,118.8,144.5,119.2,143.5,120.3z"/>
<g>
	<path class="st2" d="M81.9,209.3c-2.1-1-1.9-4-0.1-5.4c1.9-1.4,4.6-1.4,6.9-0.8l-2.8,1.2c1.6,0,3,0.9,3.8,2.1
		c0.8,1.1,1.1,2.5,1.3,3.8c0.5,3.4-0.1,7.6-3.6,9.2c-1.5,0.7-3.6,0.7-4.9-0.3c-1.3-1-1.3-3.1,0.2-3.9c-2.1,1-5.1-0.3-5.3-2.4
		C77.2,210.9,79.6,209,81.9,209.3z"/>
	<g>
		<path class="st2" d="M80.4,211.6c-3-2-4-5.2-1.9-8.2c2.4-3.3,7.2-3.6,11.2-2.8c2.5,0.5,3.1,3.8,0.7,4.8c-0.9,0.4-1.9,0.8-2.8,1.2
			c-0.2-1.6-0.5-3.2-0.7-4.8c8.6,1.1,9.5,13,5,17.9c-2.5,2.7-7.3,4-10.7,1.7c-3-2-3.2-5.8-0.4-8c1,1.5,2,2.9,3,4.4
			c-3.7,1.3-8.3-0.7-9.1-4.2c-0.9-3.9,3.1-7,7.4-7c3.9,0,3.9,5.3,0,5.3c-1.2,1-1.1,1.3,0.1,0.8c2.9-1,5.1,2.7,3,4.4
			c0.7,0.3,1.4,0.1,1.9-0.5c0.2-0.3,0.4-0.5,0.6-0.8c0.6-1,0.7-2.3,0.7-3.3c0-2-0.2-5.2-3.1-5.6c-2.6-0.3-2.9-3.8-0.7-4.8
			c0.9-0.4,1.9-0.8,2.8-1.2c0.2,1.6,0.5,3.2,0.7,4.8c-1-0.2-2.8-0.6-3.7,0c-0.3,0.2-1.2,1-0.8,1.3C86.5,209.1,83.5,213.7,80.4,211.6
			z"/>
	</g>
</g>
<path class="st13" d="M75,82.6c-46.6,12-55.9,16.8-55.5,18.9c0.6,3.7,31.5,7.1,49.1-10.4C71.7,88,73.8,84.8,75,82.6z"/>
<path class="st14" d="M210.7,123.9c-2.8,0.2-8.8,14.9-6.7,17c1.2,1.2,5.4-1.4,7.6-5.4C214.5,130,212.6,123.8,210.7,123.9z"/>
<path class="st14" d="M178.5,121.1c2.6,0.9,4.2,16.7,1.6,18.1c-1.5,0.8-4.8-2.8-5.7-7.2C173.2,125.9,176.8,120.5,178.5,121.1z"/>
<path class="st14" d="M191.8,134.3c-10.8,0.1-18.5,7.3-21.7,13.1c-1.4,2.6-1.7,4.6-1.9,5.3c-1.7,7.2,2,14.7,8.5,17.3
	c0,0,0.1,0,0.1,0c3.8,1.5,5.3,0.8,16.6,0.7c9.7,0,11.8,0.5,15.5-1.3c0,0,0.1,0,0.1,0c5-2.4,8-8.1,7.4-13.9c-0.1-0.8-0.1-3.8-2-7.5
	C211.1,141.7,203,134.2,191.8,134.3z"/>
<radialGradient id="SVGID_1_" cx="154.2382" cy="111.6471" r="47.9" fx="156.07" fy="112.8267" gradientTransform="matrix(0.7887 2.474956e-02 -2.534989e-02 0.77 72.8604 44.6777)" gradientUnits="userSpaceOnUse">
	<stop  offset="0" style="stop-color:#A51E22;stop-opacity:0.6512"/>
	<stop  offset="0" style="stop-color:#A51E22;stop-opacity:0.9"/>
	<stop  offset="0.7012" style="stop-color:#A51E22;stop-opacity:0.6512"/>
	<stop  offset="1" style="stop-color:#FFCC5F;stop-opacity:0.9"/>
</radialGradient>
<path class="st15" d="M191.9,134.2c-11.1,0.1-18.7,7.6-21.8,13.3c-1.4,2.6-1.7,4.6-1.9,5.3c-1.7,7.2,2,14.7,8.5,17.3
	c0,0,0.1,0,0.1,0c3.8,1.5,5.3,0.8,16.6,0.7c9.7,0,11.8,0.5,15.5-1.3c0,0,0.1,0,0.1,0c5-2.4,8-8.1,7.4-13.9c-0.1-0.8-0.1-3.8-2-7.5
	C211.2,141.9,203.3,134.1,191.9,134.2z"/>
<radialGradient id="SVGID_2_" cx="154.1101" cy="119.7792" r="29.6716" fx="155.1926" fy="120.5853" gradientTransform="matrix(0.4439 0.6369 -0.6388 0.4244 199.4694 -8.2688)" gradientUnits="userSpaceOnUse">
	<stop  offset="0" style="stop-color:#A51E22;stop-opacity:0.9"/>
	<stop  offset="0.7012" style="stop-color:#A51E22;stop-opacity:0.6512"/>
	<stop  offset="1" style="stop-color:#FFCC5F;stop-opacity:0.9"/>
</radialGradient>
<path class="st16" d="M192.5,134.2c-11.6-0.1-19.2,7.9-22.2,13.4c-1.4,2.6-1.7,4.6-1.9,5.3c-1.7,7.2,2,14.7,8.5,17.3
	c0,0,0.1,0,0.1,0c3.8,1.5,5.3,0.8,16.6,0.7c9.7,0,11.8,0.5,15.5-1.3c0,0,0.1,0,0.1,0c5-2.4,8-8.1,7.4-13.9c-0.1-0.8-0.1-3.8-2-7.5
	C211.5,142.4,204,134.3,192.5,134.2z"/>
<ellipse class="st17" cx="184.4" cy="150.6" rx="0.7" ry="0.7"/>
<ellipse class="st17" cx="200" cy="150.4" rx="0.7" ry="0.7"/>
<path class="st17" d="M189.9,155.7c0.4-1.2,4.8-1.3,5.2-0.2c0.3,0.7-0.8,2.5-2.6,2.6C190.8,158,189.6,156.4,189.9,155.7z"/>
<line class="st18" x1="192.5" y1="157" x2="192.6" y2="160.2"/>
<path class="st19" d="M191.4,138.6c-6.9,2.5-10.7,6.9-11.1,6.6c-0.3-0.3,1.7-3.5,5.3-5.8c6.9-4.4,15.7-2.8,15.7-2.5
	C201.3,137.1,197.1,136.6,191.4,138.6z"/>
<path class="st19" d="M193.7,138.6c6.9,2.5,10.7,6.9,11.1,6.6c0.3-0.3-1.7-3.5-5.3-5.8c-6.9-4.4-15.7-2.8-15.7-2.5
	C183.8,137.1,188,136.5,193.7,138.6z"/>
</svg>
