<?xml version="1.0" encoding="utf-8"?>
<!-- Generator: Adobe Illustrator 21.0.0, SVG Export Plug-In . SVG Version: 6.00 Build 0)  -->
<svg version="1.1" id="Layer_1" xmlns="http://www.w3.org/2000/svg" xmlns:xlink="http://www.w3.org/1999/xlink" x="0px" y="0px"
	 viewBox="0 0 219 311.6" style="enable-background:new 0 0 219 311.6;" xml:space="preserve">
<style type="text/css">
	.st0{fill:#B1DCBF;stroke:#B1DCBF;stroke-miterlimit:10;}
	.st1{fill:#EE2A7B;stroke:#EE2A7B;stroke-miterlimit:10;}
	.st2{fill:#B3AFAF;stroke:#B3AFAF;stroke-miterlimit:10;}
	.st3{fill:#9C9C9E;stroke:#9C9C9E;stroke-miterlimit:10;}
	.st4{fill:#878787;stroke:#878787;stroke-miterlimit:10;}
	.st5{fill:#F59FC4;stroke:#F59FC4;stroke-miterlimit:10;}
	.st6{fill:#808285;stroke:#808285;stroke-linecap:round;stroke-miterlimit:10;}
	.st7{fill:#E72F2F;stroke:#E72F2F;stroke-miterlimit:10;}
	.st8{fill:#AB2D2D;stroke:#AB2D2D;stroke-miterlimit:10;}
	.st9{stroke:#9BCCB2;stroke-miterlimit:10;}
	.st10{fill:#F8B6C8;stroke:#F8B6C8;stroke-width:0.25;stroke-miterlimit:10;}
	.st11{fill:#FFFFFF;stroke:#FFFFFF;stroke-width:0.25;stroke-miterlimit:10;}
	.st12{fill:#DE5280;stroke:#DE5280;stroke-linecap:round;stroke-miterlimit:10;}
	.st13{fill:#D1D3D4;stroke:#B0B0AF;stroke-miterlimit:10;}
	.st14{fill:none;stroke:#D1D3D4;stroke-width:8;stroke-miterlimit:10;}
	.st15{fill:none;stroke:#D1D3D4;stroke-width:5;stroke-miterlimit:10;}
	.st16{fill:#FECD87;}
	.st17{fill:url(#SVGID_1_);}
	.st18{fill:url(#SVGID_2_);}
	.st19{fill:url(#SVGID_3_);}
	.st20{fill:url(#SVGID_4_);}
	.st21{opacity:0.25;fill:url(#SVGID_5_);}
	.st22{opacity:0.25;fill:url(#SVGID_6_);}
	.st23{opacity:0.25;fill:url(#SVGID_7_);}
	.st24{opacity:0.25;fill:url(#SVGID_8_);}
	.st25{fill:url(#SVGID_9_);}
	.st26{opacity:0.25;fill:url(#SVGID_10_);}
	.st27{fill:url(#SVGID_11_);}
	.st28{opacity:0.25;fill:url(#SVGID_12_);}
	.st29{fill:url(#SVGID_13_);}
	.st30{opacity:0.25;fill:url(#SVGID_14_);}
	.st31{fill:url(#SVGID_15_);}
	.st32{opacity:0.25;fill:url(#SVGID_16_);}
	.st33{fill:none;stroke:#000000;stroke-width:0;stroke-linecap:round;stroke-linejoin:round;}
	.st34{fill:#F7941D;stroke:#F7941D;stroke-miterlimit:10;}
	.st35{fill:#DA7C27;stroke:#DA7C27;stroke-miterlimit:10;}
	.st36{fill:#4AA147;stroke:#4AA147;stroke-miterlimit:10;}
	.st37{fill:#DA7C27;}
</style>
<path class="st0" d="M131.4,169.6c7-3.1,16.3-7.1,27.6-11.7c18.7-7.6,24.1-9.1,27.9-6.8c4.3,2.6,6.3,10,4,15.4
	c-1.9,4.4-5.8,6.2-25.4,13.7c-18,6.9-21.3,11.5-26.7,9.3C131.6,186.7,131.2,174.9,131.4,169.6z"/>
<path class="st0" d="M116.7,246.1c-1.3,3.9,1.1,6.6,16.4,27.9c11,15.3,13,18.3,17.7,19.1c8.8,1.4,19.6-6.4,20.1-13.8
	c0.4-6.1-6.5-7.3-15.7-19.8c-9.2-12.6-7.8-18.8-14.6-21.8C132.2,234.1,119.2,238.7,116.7,246.1z"/>
<path class="st0" d="M84.4,166.3c-6,6.1-3.8,9.5-16.5,34.9c-7,14-8.7,14.9-10.5,21.6c0,0.2-0.1,0.4-0.2,0.8c-5.5,21.4,2.7,35,2.7,35
	c8.2,13.6,25.7,15.7,34.7,16.8c8.6,1,24.5,2.9,37-7.7c8.1-6.8,15.3-19.4,13.6-31.1l0,0c-0.9-6.2-1.1-9.3-1.6-13.5
	c-0.4-3.2-0.7-5-1-6.7c-1.5-9.9-1.1-19.7-1.2-26.1c-0.2-16.5-0.1-24.9-5-30C126,149.6,98,152.4,84.4,166.3z"/>
<path class="st0" d="M65.6,246.5c-3.8,1.5-4.3,5.1-10.3,30.7C51,295.5,50,298.9,52.4,303c4.6,7.6,17.5,10.6,23.5,6.2
	c4.2-3.1,2.1-7.8,4.9-21.7c3.6-17.7,9.3-21.1,6.7-28.4C84.6,250.3,72.7,243.6,65.6,246.5z"/>
<path class="st0" d="M107.4,76c32.7,0.3,60.2,47.3,48,72.5c-9.2,19-38.7,21-43.5,21.3c-16.7,1.2-45.2-3.2-54-21.8
	C45.8,122.1,74.7,75.6,107.4,76z"/>
<path class="st1" d="M67.9,270.3"/>
<path class="st2" d="M79.4,180c-1.6-1-3.7-2.7-3.5-4.4c0.1-1.2,1.3-1.5,2.3-3c1.8-2.7,0.4-5,1.2-6.5c2-3.7,15.9,4.2,30.8,3.5
	c14.2-0.7,29.3-9.4,30.7-6.8c0.3,0.5,0.2,1.8,1.2,3.7c0.2,0.4,0.6,1,0.7,1.8c0,0,0.1,0.9-0.2,1.8c-0.2,0.5-2.4,7.4-9.3,12.2
	c-9.7,6.7-22.2,5.1-25.1,4.7h0C108.1,187,90.1,186.8,79.4,180z"/>
<path class="st3" d="M113.7,178.3c3.7-0.3,11.2-0.9,18.5-6.2c3.8-2.7,6.3-5.8,7.7-7.9c0,0,0-0.1,0-0.1c-1.9-3.2-14.7,5.1-29.7,5.5
	c-14.6,0.4-27.9-6.7-30.6-3.8c2.6,2.3,6.5,5.3,11.9,7.8C95.5,175.5,103.3,179,113.7,178.3z"/>
<g>
	<path class="st4" d="M165.2,105.5c-6.1-18.1-9.1-27.1-14.7-34c0,0-11.6-14.6-34.3-23.2c-3.8-1.4-7.5-2.4-12-2.3
		c-5.4,0.1-9.7,1.7-14,3.8c-9.9,4.9-22.6,11-32,25.3c-3.6,5.5-5.7,12.3-10,26c-6.9,22.2-5.5,29.3-4.3,33.1c0.6,1.9,2.4,7,8.8,14
		c21.9,24.2,51.7,25.1,51.7,25.1s30.3,0.9,56-25.1c5.1-5.2,7.4-9.2,8.8-13.3C171.1,128.8,170.9,122.1,165.2,105.5z M153.1,131.2
		c-0.1,1.6-0.9,14.5-10.5,24.3c-10.6,10.8-25.1,10.8-34.3,10.8c-9.2,0-24.6-0.1-35-11.8c-7.6-8.5-8.5-20.1-8.8-22.8
		c-0.2-2.4-0.6-6.6,0.5-11.8c0.4-2.1,3.3-14.9,14.5-22.3c7-4.6,13.8-4.6,27.5-4.5c17,0.1,26.9,0.1,34.8,7.5c7,6.5,9.4,16.4,10,19
		C152.4,121.9,153.4,126,153.1,131.2z"/>
</g>
<path class="st0" d="M80.7,89.2c-4.1,5-30-7.3-44.2-29.9C25.6,42.3,20.6,17.9,25.8,15.1C35.7,9.7,88,80.5,80.7,89.2z"/>
<path class="st0" d="M133.6,90.3c5.3,3.6,26.8-15.2,34.4-40.8c5.7-19.4,4-44.2-1.8-45.5C155.2,1.5,124.2,83.9,133.6,90.3z"/>
<path class="st5" d="M160.2,32.8c-5.8-1.5-26.3,45.9-21.3,49c3,1.8,17.4-10.7,21.7-28C162.6,45.6,163,33.5,160.2,32.8z"/>
<path class="st5" d="M41.9,40c5.3-2.7,35.9,38.9,31.7,43c-2.5,2.5-19.4-6.6-27.4-22.5C42.4,53,39.3,41.3,41.9,40z"/>
<path class="st2" d="M167.8,92.4c-2.1-6.3-5-10.7-6.2-12.3C154.3,70,144.4,65.9,132.1,61c-12.2-4.8-18.4-7.3-27.5-7
	c-7.1,0.3-13.7,3.2-27,9C54.6,73.1,49.6,79.6,48,81.8c-4.6,6.4-6.1,12.7-6.4,14.3c-1.3,5.7-3.3,13-0.2,15.8c4.1,3.7,12.5-4.1,27-7.5
	c14.5-3.4,15.3,2.3,39.8,2.5c24.7,0.2,29-5.5,43-0.5c9.6,3.4,15,8.7,18.3,6.3C173.8,109.4,168.9,95.6,167.8,92.4z M68.5,78
	c-0.7,5.6-0.5,11-0.4,16.7c0,1.5-1,2.9-2.5,3.3c-0.1,0-0.2,0-0.3,0.1c-2.1,0.6-4.2-1-4.1-3.2c0-5.8,0.1-11.8,0.6-17.5
	c0.1-1.2,0.9-2.3,2-2.7l0.1,0C66.4,73.5,68.9,75.5,68.5,78z M82,95.5c-2,2-6,2.4-7.9,0.7c-1.9-1.6-0.6-4.3-0.1-13.1
	c0.5-8.4-0.5-10.6,1.6-13.2c2.1-2.6,6.2-4.2,7.9-2.9c2,1.5-1,5.6-1.2,14.3C82,89.5,84.5,92.9,82,95.5z M100.7,68
	c-0.8,8.2-1.7,16.2-1.6,24.4c0,2.6-2.3,4.7-4.9,4.2c-0.1,0-0.2,0-0.3-0.1c-2-0.4-3.5-2.1-3.5-4.2c0-8.5,0.3-17.1,1.9-25.6
	c0.3-1.7,1.6-3,3.3-3.4c0,0,0.1,0,0.1,0C98.4,62.9,101,65.2,100.7,68z M118.1,97c-0.1,0-0.2,0-0.3,0.1c-2.7,0.5-5.2-1.7-5.2-4.4
	c0.1-8.5-0.8-16.7-1.7-25.1c-0.3-3,2.4-5.4,5.3-4.8c0,0,0.1,0,0.1,0c1.8,0.4,3.2,1.8,3.5,3.6c1.6,8.8,1.9,17.5,1.9,26.3
	C121.8,94.8,120.2,96.6,118.1,97z M137.5,96.8c-2,1.8-6.3,1.4-8.4-0.7c-2.6-2.7,0-6.2-0.2-14.8c-0.3-9-3.4-13.2-1.3-14.8
	c1.8-1.4,6.1,0.3,8.3,3c2.2,2.7,1.2,4.9,1.7,13.7C138.2,92.4,139.5,95.1,137.5,96.8z M146.8,98.7c-0.1,0-0.2,0-0.3-0.1
	c-1.6-0.4-2.7-1.8-2.6-3.5c0.1-5.8,0.3-11.5-0.4-17.2c-0.3-2.7,2.3-4.7,4.8-3.7c0,0,0.1,0,0.1,0c1.2,0.5,2,1.6,2.1,2.9
	c0.5,5.9,0.6,12.1,0.7,18.1C151.1,97.6,149,99.3,146.8,98.7z"/>
<path class="st3" d="M82.7,100c-2.5,0-7.6,0.3-13.8,1.7c-10.4,2.4-18.7,6.9-24.8,11.3c4.7,0,12.5-5.7,24.3-8.5
	c14.5-3.4,15.3,2.3,39.8,2.5c24.7,0.2,29-5.5,43-0.5c7.7,2.7,12.7,6.7,16,6.9c-3.7-3.2-10.3-7.9-19.6-10.7
	c-1.3-0.4-6.3-1.8-13.3-2.2c-13.2-0.7-14.7,3.4-26,3.3C97.2,103.7,95.9,99.8,82.7,100z"/>
<ellipse transform="matrix(0.1199 -0.9928 0.9928 0.1199 -76.92 144.6779)" class="st6" cx="43.1" cy="115.7" rx="4.7" ry="2.3"/>
<ellipse transform="matrix(0.9928 -0.1199 0.1199 0.9928 -12.6856 21.1179)" class="st6" cx="169.1" cy="116" rx="2.3" ry="4.7"/>
<path class="st4" d="M101,243.6c16.6-0.4,30.4-3.7,34.2-5.4c2.5-1.1,5.2-1.6,7.6-2.7c1.6-0.7,2.9-1.4,3.7-0.9
	c0.8,0.4,0.2,1.4,0.8,3.3c0.5,1.5,1.1,1.7,1.2,2.5c0.4,2.3-4.7,4.9-6.1,5.6c-12.2,5.9-40.3,7.8-40.3,7.8s-25.4,1.7-41-2.2
	c-4.9-1.2-5.9-3.1-6.2-3.6c-0.3-0.6-0.3-1.6-0.4-3.8c-0.1-3.3,0.2-3.7,0.4-3.9c1.6-1.5,7,0.4,7.9,0.7
	C72.9,244.2,87.1,243.9,101,243.6z"/>
<path class="st7" d="M92.1,3.2c1.8-1.9,13.4,3.6,19,13.8c1.1,1.9,3.4,6.3,3.3,12.3c-0.1,4.9-2.1,15.5-9.5,17.3
	c-7.1,1.7-15.5-5.7-16-12.3c-0.5-6.6,7.3-8.8,7.8-17.3C97,9.2,90.7,4.7,92.1,3.2z"/>
<path class="st8" d="M102.9,45c1.1-2.9,2.5-7.4,2.8-13c0.2-3.8,0.6-9.4-2-15.5C100.1,7.9,93.1,3.9,93.2,3.8c0.1-0.1,5.2,3.7,4.3,6.2
	c-0.2,0.7-1,1.2-1.7,1.6c0.5,1.3,0.9,3.2,0.8,5.4c-0.2,5.1-3.2,7.9-5.4,10.8c5.2-5.3,6.9-6,7.5-5.6c1.4,1-5.2,9.3-2.5,16.3
	C97.5,41.9,100.6,43.9,102.9,45z"/>
<ellipse class="st9" cx="88.7" cy="120.1" rx="3.5" ry="10.5"/>
<ellipse class="st9" cx="126.4" cy="119.2" rx="3.5" ry="10.5"/>
<g>
	<g>
		<path d="M103.3,134.7c3.8,0.7,7.6,0.7,11.3,0c0.8-0.1,0.5-1.4-0.3-1.2c-3.6,0.7-7.1,0.6-10.7,0
			C102.8,133.3,102.5,134.5,103.3,134.7L103.3,134.7z"/>
	</g>
</g>
<g>
	<g>
		<path d="M108.1,135.2c0,1.8,0.1,3.7,0.2,5.5c0,0.8,1.3,0.8,1.3,0c-0.1-1.8-0.1-3.7-0.2-5.5C109.3,134.4,108.1,134.4,108.1,135.2
			L108.1,135.2z"/>
	</g>
</g>
<path class="st10" d="M79.8,146.6c1-7.2,56.5-8.9,58-1.7c0.8,3.9-13.7,11.6-27.7,12.3C94.9,158,79.2,150.5,79.8,146.6z"/>
<path class="st11" d="M109,142.9c0-0.1-0.1-0.6-0.1-1.3c0-0.5,0-1,0-1.3c-1.7,0.1-3.4,0.1-5.1,0.3c-1.6,0.1-3.2,0.2-4.7,0.4
	c0,1,0.1,2.3,0.2,3.9c0.2,3,0.2,3.4,0.4,3.7c1.6,2.1,6.6,2.4,8.6,0.3C109.3,147.7,109.2,146.1,109,142.9z"/>
<path class="st11" d="M117.9,142.9c0-0.6-0.1-1.4-0.1-1.4c0-0.5-0.1-0.9-0.1-1.2c-1.5-0.1-3.1-0.1-4.7-0.1c-1.6,0-3.2,0-4.7,0.1
	c-0.1,1.1-0.2,2.7-0.1,4.6c0,2.1,0,3.1,0.5,3.7c1.6,2.1,6.6,2.4,8.6,0.3C118.2,147.7,118.1,146.1,117.9,142.9z"/>
<circle class="st12" cx="80.2" cy="132" r="5.3"/>
<circle class="st12" cx="134.5" cy="132.1" r="5.3"/>
<path class="st4" d="M147.9,243.2c0.6-0.4,1.7-0.8,8.4,2.2c9.2,4.1,16,7.2,15.6,10.2c-0.4,2.9-7.2,4.3-9.7,4.6
	c-2.3,0.3-5.9,0.7-9.2-1.2C146.9,255.4,145.2,245.3,147.9,243.2z"/>
<path class="st7" d="M124.5,240.8c0.6,0.8,0.5,1.8,0.5,2.5c-0.3,4.3,0.8,8.7,0.8,13c0,1.6,0.5,11.9,5.8,21.5
	c2.2,3.9,4.4,5.4,3.8,7.5c-0.9,2.8-5.7,3.6-12,4.5c-7,1.1-12,0.7-19,0.3c-10.2-0.7-11.7-1.8-12.3-3c-0.9-2,0.9-3.9,2.8-8
	c3.1-7,3.1-13.4,3-21c-0.1-10.1-2.4-14.9,0.3-16.8c1.1-0.8,1.8-0.2,8.8-0.3c2.5,0,4.6,0,7.3-0.3
	C120.4,240.3,123.2,239.2,124.5,240.8z"/>
<path class="st8" d="M118.1,240.4c-1.2,0.1-2.5,0.3-4.1,0.4c-2.6,0.2-4.7,0.2-7.3,0.3c-0.6,0-1.1,0-1.6,0
	c1.9,16.3-0.5,32.5-3.7,48.8c0.9,0.1,1.8,0.2,2.8,0.2c7,0.5,12,0.8,19-0.3c0.5-0.1,1-0.2,1.5-0.2
	C120.8,273.5,120.1,256.9,118.1,240.4z"/>
<path class="st13" d="M62.9,144.5c3.9,0.1,3.2,2,26,18.3c3.6,2.6,7,4.9,12,7c8.4,3.5,11.1,1.9,14.3,4c8.8,5.8,4.4,27.1,0.3,47
	c-3.9,19-5.8,28.5-12.7,37.3c-0.8,1-9,7.7-25.3,21c-7.9,6.4-12,9.6-17.7,9.7c-5.4,0-9.3-2.8-16-8c-17.4-13.6-26.2-20.4-29-24.7
	c-6.4-9.5-7.7-18.6-10.3-36.7c-2.1-14.6-6.1-42.3,4.3-47.7c3.3-1.7,5.8,0,13.7-2.7c5.3-1.8,9-4.2,11.7-6
	C58,147.2,58.1,144.3,62.9,144.5z"/>
<path class="st8" d="M61.6,157.1c3.3,0.1,2.7,1.7,21.9,15.7c3,2.2,5.9,4.2,10.1,6c7.1,3,9.3,1.6,12.1,3.4c7.4,4.9,3.7,23.2,0.3,40.3
	c-3.3,16.3-4.9,24.4-10.7,32c-0.7,0.9-7.5,6.6-21.3,18c-6.6,5.5-10.1,8.3-14.9,8.3c-4.6,0-7.9-2.4-13.5-6.9
	c-14.7-11.7-22-17.5-24.4-21.1c-5.4-8.2-6.5-15.9-8.7-31.4c-1.8-12.5-5.1-36.3,3.6-40.8c2.8-1.4,4.9,0,11.5-2.3
	c4.5-1.5,7.6-3.6,9.8-5.1C57.5,159.5,57.5,157,61.6,157.1z"/>
<line class="st14" x1="61.1" y1="152.5" x2="59.6" y2="286.2"/>
<line class="st15" x1="9.6" y1="224" x2="109.1" y2="224.2"/>
<path class="st16" d="M83.5,203c3.7-6.5,1.2-13.9-1.1-13.8c-2.6,0.2-7.5,9.9-8.7,15.9c1.8,0.9,3.5,2,5,3.2
	C80.4,207,82.3,205.2,83.5,203z"/>
<path class="st16" d="M41.8,185.9c-2.2-0.7-6.8,5.8-5.2,13c0.8,3.4,2.8,6.5,4.7,7.9c1.2-0.8,2.6-1.6,4-2.2
	C46.2,198.7,44.4,186.7,41.8,185.9z"/>
<path class="st16" d="M28.9,222.9c0.3-1.1,0.8-3.2,2.2-5.7C29.7,219.8,29.1,221.8,28.9,222.9z"/>
<radialGradient id="SVGID_1_" cx="-82.1488" cy="-339.3257" r="239.4998" fx="-72.9897" fy="-333.4276" gradientTransform="matrix(0.1994 5.903846e-03 -6.408430e-03 0.1837 72.5789 264.5915)" gradientUnits="userSpaceOnUse">
	<stop  offset="0" style="stop-color:#A51E22;stop-opacity:0.6512"/>
	<stop  offset="0" style="stop-color:#A51E22;stop-opacity:0.9"/>
	<stop  offset="0.7012" style="stop-color:#A51E22;stop-opacity:0.6512"/>
	<stop  offset="1" style="stop-color:#FFCC5F;stop-opacity:0.9"/>
</radialGradient>
<path class="st17" d="M41.3,206.8C41.3,206.8,41.3,206.8,41.3,206.8c-4.8,3.1-8.2,7-10.2,10.4C33.2,213.8,36.6,209.8,41.3,206.8z"/>
<radialGradient id="SVGID_2_" cx="-82.1488" cy="-339.3257" r="239.4998" fx="-72.9897" fy="-333.4276" gradientTransform="matrix(0.1994 5.903846e-03 -6.408430e-03 0.1837 72.5789 264.5915)" gradientUnits="userSpaceOnUse">
	<stop  offset="0" style="stop-color:#A51E22;stop-opacity:0.6512"/>
	<stop  offset="0" style="stop-color:#A51E22;stop-opacity:0.9"/>
	<stop  offset="0.7012" style="stop-color:#A51E22;stop-opacity:0.6512"/>
	<stop  offset="1" style="stop-color:#FFCC5F;stop-opacity:0.9"/>
</radialGradient>
<path class="st18" d="M59.4,201.5c1.8,0,3.6,0.2,5.2,0.5c-1.9-0.3-3.9-0.5-5.9-0.5c-5.1,0-9.6,1.2-13.4,3.1c0,0,0,0.1,0,0.1
	C49.2,202.7,54,201.4,59.4,201.5z"/>
<radialGradient id="SVGID_3_" cx="-82.1488" cy="-339.3257" r="239.4998" fx="-72.9897" fy="-333.4276" gradientTransform="matrix(0.1994 5.903846e-03 -6.408430e-03 0.1837 72.5789 264.5915)" gradientUnits="userSpaceOnUse">
	<stop  offset="0" style="stop-color:#A51E22;stop-opacity:0.6512"/>
	<stop  offset="0" style="stop-color:#A51E22;stop-opacity:0.9"/>
	<stop  offset="0.7012" style="stop-color:#A51E22;stop-opacity:0.6512"/>
	<stop  offset="1" style="stop-color:#FFCC5F;stop-opacity:0.9"/>
</radialGradient>
<path class="st19" d="M28.8,223.5c0-0.1,0.1-0.3,0.1-0.6C28.8,223.2,28.8,223.4,28.8,223.5z"/>
<path class="st16" d="M28.9,223.7c0.2-0.8,0.6-3.2,2.4-6.3c2.4-4.1,7.1-9.4,13.9-12.8c0,0,0-0.1,0-0.1c-1.4,0.7-2.7,1.4-4,2.2
	c0,0,0.1,0,0.1,0.1c-4.7,3-8.2,6.9-10.2,10.4c-1.5,2.5-2,4.6-2.2,5.7c-0.1,0.3-0.1,0.5-0.1,0.6c-1.4,5.7,0.1,11.6,3.7,15.7
	C29,235.1,27.5,229.3,28.9,223.7z"/>
<radialGradient id="SVGID_4_" cx="-82.1488" cy="-339.3257" r="239.4998" fx="-72.9897" fy="-333.4276" gradientTransform="matrix(0.1994 5.903846e-03 -6.408430e-03 0.1837 72.5789 264.5915)" gradientUnits="userSpaceOnUse">
	<stop  offset="0" style="stop-color:#A51E22;stop-opacity:0.6512"/>
	<stop  offset="0" style="stop-color:#A51E22;stop-opacity:0.9"/>
	<stop  offset="0.7012" style="stop-color:#A51E22;stop-opacity:0.6512"/>
	<stop  offset="1" style="stop-color:#FFCC5F;stop-opacity:0.9"/>
</radialGradient>
<path class="st20" d="M28.9,223.7c0.2-0.8,0.6-3.2,2.4-6.3c2.4-4.1,7.1-9.4,13.9-12.8c0,0,0-0.1,0-0.1c-1.4,0.7-2.7,1.4-4,2.2
	c0,0,0.1,0,0.1,0.1c-4.7,3-8.2,6.9-10.2,10.4c-1.5,2.5-2,4.6-2.2,5.7c-0.1,0.3-0.1,0.5-0.1,0.6c-1.4,5.7,0.1,11.6,3.7,15.7
	C29,235.1,27.5,229.3,28.9,223.7z"/>
<radialGradient id="SVGID_5_" cx="-82.7891" cy="-298.6653" r="148.3579" fx="-77.3768" fy="-294.6346" gradientTransform="matrix(0.1122 0.1519 -0.1615 0.1012 19.0463 252.0586)" gradientUnits="userSpaceOnUse">
	<stop  offset="0" style="stop-color:#A51E22;stop-opacity:0.9"/>
	<stop  offset="0.7012" style="stop-color:#A51E22;stop-opacity:0.6512"/>
	<stop  offset="1" style="stop-color:#FFCC5F;stop-opacity:0.9"/>
</radialGradient>
<path class="st21" d="M73.7,205c-2.7-1.4-5.8-2.5-9.1-3.1C67.9,202.5,71,203.7,73.7,205C73.7,205.1,73.7,205.1,73.7,205z"/>
<radialGradient id="SVGID_6_" cx="-82.7891" cy="-298.6653" r="148.3579" fx="-77.3768" fy="-294.6346" gradientTransform="matrix(0.1122 0.1519 -0.1615 0.1012 19.0463 252.0586)" gradientUnits="userSpaceOnUse">
	<stop  offset="0" style="stop-color:#A51E22;stop-opacity:0.9"/>
	<stop  offset="0.7012" style="stop-color:#A51E22;stop-opacity:0.6512"/>
	<stop  offset="1" style="stop-color:#FFCC5F;stop-opacity:0.9"/>
</radialGradient>
<path class="st22" d="M89.8,227.1c-0.1-0.9-0.2-4.5-2.6-8.9c-1.7-3.1-4.6-6.8-8.5-9.9c0,0,0,0,0,0c3.9,3,6.7,6.5,8.4,9.7
	c1.9,3.4,2.3,6.4,2.5,7.9c0,0.4,0.1,0.8,0.1,1c0.8,7-2.9,13.7-9.3,16.6c0,0-0.1,0-0.1,0.1c-4.7,2.1-7.4,1.5-19.6,1.5
	c-14.2,0-16.1,0.9-20.9-0.9c-0.1,0-0.1,0-0.2-0.1c-2.8-1-5.2-2.7-7-4.9c1.9,2.2,4.3,4,7.1,5c0.1,0,0.1,0,0.2,0.1
	c4.9,1.8,6.7,0.9,20.9,0.9c12.2,0,14.9,0.6,19.6-1.5c0,0,0.1,0,0.1-0.1C86.8,240.8,90.6,234,89.8,227.1z"/>
<path class="st16" d="M78.7,208.3C78.7,208.3,78.7,208.3,78.7,208.3c-1.5-1.2-3.1-2.3-5-3.2c0,0,0,0,0,0
	C75.5,206,77.2,207.1,78.7,208.3z"/>
<radialGradient id="SVGID_7_" cx="-82.7891" cy="-298.6653" r="148.3579" fx="-77.3768" fy="-294.6346" gradientTransform="matrix(0.1122 0.1519 -0.1615 0.1012 19.0463 252.0586)" gradientUnits="userSpaceOnUse">
	<stop  offset="0" style="stop-color:#A51E22;stop-opacity:0.9"/>
	<stop  offset="0.7012" style="stop-color:#A51E22;stop-opacity:0.6512"/>
	<stop  offset="1" style="stop-color:#FFCC5F;stop-opacity:0.9"/>
</radialGradient>
<path class="st23" d="M78.7,208.3C78.7,208.3,78.7,208.3,78.7,208.3c-1.5-1.2-3.1-2.3-5-3.2c0,0,0,0,0,0
	C75.5,206,77.2,207.1,78.7,208.3z"/>
<path class="st16" d="M87.1,218c1.9,3.4,2.3,6.4,2.5,7.9C89.4,224.3,88.9,221.4,87.1,218z"/>
<radialGradient id="SVGID_8_" cx="-82.7891" cy="-298.6653" r="148.3579" fx="-77.3768" fy="-294.6346" gradientTransform="matrix(0.1122 0.1519 -0.1615 0.1012 19.0463 252.0586)" gradientUnits="userSpaceOnUse">
	<stop  offset="0" style="stop-color:#A51E22;stop-opacity:0.9"/>
	<stop  offset="0.7012" style="stop-color:#A51E22;stop-opacity:0.6512"/>
	<stop  offset="1" style="stop-color:#FFCC5F;stop-opacity:0.9"/>
</radialGradient>
<path class="st24" d="M87.1,218c1.9,3.4,2.3,6.4,2.5,7.9C89.4,224.3,88.9,221.4,87.1,218z"/>
<radialGradient id="SVGID_9_" cx="-82.1488" cy="-339.3257" r="239.4998" fx="-72.9897" fy="-333.4276" gradientTransform="matrix(0.1994 5.903846e-03 -6.408430e-03 0.1837 72.5789 264.5915)" gradientUnits="userSpaceOnUse">
	<stop  offset="0" style="stop-color:#A51E22;stop-opacity:0.6512"/>
	<stop  offset="0" style="stop-color:#A51E22;stop-opacity:0.9"/>
	<stop  offset="0.7012" style="stop-color:#A51E22;stop-opacity:0.6512"/>
	<stop  offset="1" style="stop-color:#FFCC5F;stop-opacity:0.9"/>
</radialGradient>
<path class="st25" d="M45.2,204.6C45.2,204.7,45.2,204.7,45.2,204.6c3.9-1.8,8.3-3,13.3-3c5.7-0.1,10.8,1.4,15.1,3.6
	c0,0,0-0.1,0-0.1c-2.7-1.4-5.8-2.5-9.1-3.1c-1.7-0.3-3.4-0.5-5.2-0.5C54,201.4,49.2,202.7,45.2,204.6z"/>
<radialGradient id="SVGID_10_" cx="-82.7891" cy="-298.6653" r="148.3579" fx="-77.3768" fy="-294.6346" gradientTransform="matrix(0.1122 0.1519 -0.1615 0.1012 19.0463 252.0586)" gradientUnits="userSpaceOnUse">
	<stop  offset="0" style="stop-color:#A51E22;stop-opacity:0.9"/>
	<stop  offset="0.7012" style="stop-color:#A51E22;stop-opacity:0.6512"/>
	<stop  offset="1" style="stop-color:#FFCC5F;stop-opacity:0.9"/>
</radialGradient>
<path class="st26" d="M45.2,204.6C45.2,204.7,45.2,204.7,45.2,204.6c3.9-1.8,8.3-3,13.3-3c5.7-0.1,10.8,1.4,15.1,3.6
	c0,0,0-0.1,0-0.1c-2.7-1.4-5.8-2.5-9.1-3.1c-1.7-0.3-3.4-0.5-5.2-0.5C54,201.4,49.2,202.7,45.2,204.6z"/>
<radialGradient id="SVGID_11_" cx="-82.1488" cy="-339.3257" r="239.4998" fx="-72.9897" fy="-333.4276" gradientTransform="matrix(0.1994 5.903846e-03 -6.408430e-03 0.1837 72.5789 264.5915)" gradientUnits="userSpaceOnUse">
	<stop  offset="0" style="stop-color:#A51E22;stop-opacity:0.6512"/>
	<stop  offset="0" style="stop-color:#A51E22;stop-opacity:0.9"/>
	<stop  offset="0.7012" style="stop-color:#A51E22;stop-opacity:0.6512"/>
	<stop  offset="1" style="stop-color:#FFCC5F;stop-opacity:0.9"/>
</radialGradient>
<path class="st27" d="M89.6,225.9c0,0.4,0.1,0.8,0.1,1C89.6,226.7,89.6,226.4,89.6,225.9z"/>
<radialGradient id="SVGID_12_" cx="-82.7891" cy="-298.6653" r="148.3579" fx="-77.3768" fy="-294.6346" gradientTransform="matrix(0.1122 0.1519 -0.1615 0.1012 19.0463 252.0586)" gradientUnits="userSpaceOnUse">
	<stop  offset="0" style="stop-color:#A51E22;stop-opacity:0.9"/>
	<stop  offset="0.7012" style="stop-color:#A51E22;stop-opacity:0.6512"/>
	<stop  offset="1" style="stop-color:#FFCC5F;stop-opacity:0.9"/>
</radialGradient>
<path class="st28" d="M89.6,225.9c0,0.4,0.1,0.8,0.1,1C89.6,226.7,89.6,226.4,89.6,225.9z"/>
<radialGradient id="SVGID_13_" cx="-82.1488" cy="-339.3257" r="239.4998" fx="-72.9897" fy="-333.4276" gradientTransform="matrix(0.1994 5.903846e-03 -6.408430e-03 0.1837 72.5789 264.5915)" gradientUnits="userSpaceOnUse">
	<stop  offset="0" style="stop-color:#A51E22;stop-opacity:0.6512"/>
	<stop  offset="0" style="stop-color:#A51E22;stop-opacity:0.9"/>
	<stop  offset="0.7012" style="stop-color:#A51E22;stop-opacity:0.6512"/>
	<stop  offset="1" style="stop-color:#FFCC5F;stop-opacity:0.9"/>
</radialGradient>
<path class="st29" d="M87.1,218c-1.7-3.2-4.6-6.7-8.4-9.7c0,0,0,0-0.1,0C82.4,211.2,85.3,214.7,87.1,218z"/>
<radialGradient id="SVGID_14_" cx="-82.7891" cy="-298.6653" r="148.3579" fx="-77.3768" fy="-294.6346" gradientTransform="matrix(0.1122 0.1519 -0.1615 0.1012 19.0463 252.0586)" gradientUnits="userSpaceOnUse">
	<stop  offset="0" style="stop-color:#A51E22;stop-opacity:0.9"/>
	<stop  offset="0.7012" style="stop-color:#A51E22;stop-opacity:0.6512"/>
	<stop  offset="1" style="stop-color:#FFCC5F;stop-opacity:0.9"/>
</radialGradient>
<path class="st30" d="M87.1,218c-1.7-3.2-4.6-6.7-8.4-9.7c0,0,0,0-0.1,0C82.4,211.2,85.3,214.7,87.1,218z"/>
<path class="st16" d="M39.5,244.2c0.1,0,0.1,0,0.2,0.1c4.9,1.8,6.7,0.9,20.9,0.9c12.2,0,14.9,0.6,19.6-1.5c0,0,0.1,0,0.1-0.1
	c6.4-2.9,10.1-9.6,9.3-16.6c0-0.2,0-0.5-0.1-1c-0.2-1.6-0.6-4.5-2.5-7.9c-1.8-3.3-4.7-6.7-8.5-9.7c0,0,0,0,0.1,0
	c-1.5-1.2-3.2-2.3-5-3.2c0,0,0,0.1,0,0.1c-4.3-2.2-9.4-3.6-15.1-3.6c-5,0.1-9.5,1.2-13.4,3c0,0,0,0,0,0c-6.8,3.3-11.6,8.6-13.9,12.8
	c-1.8,3.1-2.2,5.5-2.4,6.3c-1.4,5.7,0.1,11.4,3.6,15.6C34.3,241.4,36.7,243.1,39.5,244.2z M49.2,221.8c-0.5,0-0.9-0.4-0.9-0.9
	c0-0.5,0.4-0.9,0.9-0.9s0.9,0.4,0.9,0.9C50.1,221.5,49.7,221.8,49.2,221.8z M59.5,229.9l0.1,2.6L59.5,229.9
	C59.5,229.9,59.5,229.9,59.5,229.9c-2.2,0-3.8-1.9-3.4-2.8c0.5-1.4,6-1.6,6.6-0.2C63.1,227.7,61.7,229.8,59.5,229.9z M68.9,221.7
	c-0.5,0-0.9-0.4-0.9-0.9c0-0.5,0.4-0.9,0.9-0.9s0.9,0.4,0.9,0.9C69.9,221.3,69.5,221.7,68.9,221.7z M48.5,204.6
	c0-0.3,5.1-1.2,11.2-0.1c5.9-1,10.8-0.1,10.8,0.2c0,0.2-2.9-0.1-7.2,0.7c1.7,0.5,3.4,1.3,5.1,2.3c4.5,2.7,7,6.5,6.6,6.9
	c-0.5,0.4-5.3-4.9-14-7.8c-0.5-0.2-0.9-0.3-1.3-0.4c-0.5,0.1-1,0.3-1.6,0.5c-8.7,3-13.6,8.3-14,7.8c-0.4-0.4,2.2-4.1,6.6-6.9
	c1.7-1,3.5-1.8,5.3-2.3C51.5,204.5,48.5,204.8,48.5,204.6z"/>
<radialGradient id="SVGID_15_" cx="-82.1488" cy="-339.3257" r="239.4998" fx="-72.9897" fy="-333.4276" gradientTransform="matrix(0.1994 5.903846e-03 -6.408430e-03 0.1837 72.5789 264.5915)" gradientUnits="userSpaceOnUse">
	<stop  offset="0" style="stop-color:#A51E22;stop-opacity:0.6512"/>
	<stop  offset="0" style="stop-color:#A51E22;stop-opacity:0.9"/>
	<stop  offset="0.7012" style="stop-color:#A51E22;stop-opacity:0.6512"/>
	<stop  offset="1" style="stop-color:#FFCC5F;stop-opacity:0.9"/>
</radialGradient>
<path class="st31" d="M39.5,244.2c0.1,0,0.1,0,0.2,0.1c4.9,1.8,6.7,0.9,20.9,0.9c12.2,0,14.9,0.6,19.6-1.5c0,0,0.1,0,0.1-0.1
	c6.4-2.9,10.1-9.6,9.3-16.6c0-0.2,0-0.5-0.1-1c-0.2-1.6-0.6-4.5-2.5-7.9c-1.8-3.3-4.7-6.7-8.5-9.7c0,0,0,0,0.1,0
	c-1.5-1.2-3.2-2.3-5-3.2c0,0,0,0.1,0,0.1c-4.3-2.2-9.4-3.6-15.1-3.6c-5,0.1-9.5,1.2-13.4,3c0,0,0,0,0,0c-6.8,3.3-11.6,8.6-13.9,12.8
	c-1.8,3.1-2.2,5.5-2.4,6.3c-1.4,5.7,0.1,11.4,3.6,15.6C34.3,241.4,36.7,243.1,39.5,244.2z M49.2,221.8c-0.5,0-0.9-0.4-0.9-0.9
	c0-0.5,0.4-0.9,0.9-0.9s0.9,0.4,0.9,0.9C50.1,221.5,49.7,221.8,49.2,221.8z M59.5,229.9l0.1,2.6L59.5,229.9
	C59.5,229.9,59.5,229.9,59.5,229.9c-2.2,0-3.8-1.9-3.4-2.8c0.5-1.4,6-1.6,6.6-0.2C63.1,227.7,61.7,229.8,59.5,229.9z M68.9,221.7
	c-0.5,0-0.9-0.4-0.9-0.9c0-0.5,0.4-0.9,0.9-0.9s0.9,0.4,0.9,0.9C69.9,221.3,69.5,221.7,68.9,221.7z M48.5,204.6
	c0-0.3,5.1-1.2,11.2-0.1c5.9-1,10.8-0.1,10.8,0.2c0,0.2-2.9-0.1-7.2,0.7c1.7,0.5,3.4,1.3,5.1,2.3c4.5,2.7,7,6.5,6.6,6.9
	c-0.5,0.4-5.3-4.9-14-7.8c-0.5-0.2-0.9-0.3-1.3-0.4c-0.5,0.1-1,0.3-1.6,0.5c-8.7,3-13.6,8.3-14,7.8c-0.4-0.4,2.2-4.1,6.6-6.9
	c1.7-1,3.5-1.8,5.3-2.3C51.5,204.5,48.5,204.8,48.5,204.6z"/>
<radialGradient id="SVGID_16_" cx="-82.7891" cy="-298.6653" r="148.3579" fx="-77.3768" fy="-294.6346" gradientTransform="matrix(0.1122 0.1519 -0.1615 0.1012 19.0463 252.0586)" gradientUnits="userSpaceOnUse">
	<stop  offset="0" style="stop-color:#A51E22;stop-opacity:0.9"/>
	<stop  offset="0.7012" style="stop-color:#A51E22;stop-opacity:0.6512"/>
	<stop  offset="1" style="stop-color:#FFCC5F;stop-opacity:0.9"/>
</radialGradient>
<path class="st32" d="M39.5,244.2c0.1,0,0.1,0,0.2,0.1c4.9,1.8,6.7,0.9,20.9,0.9c12.2,0,14.9,0.6,19.6-1.5c0,0,0.1,0,0.1-0.1
	c6.4-2.9,10.1-9.6,9.3-16.6c0-0.2,0-0.5-0.1-1c-0.2-1.6-0.6-4.5-2.5-7.9c-1.8-3.3-4.7-6.7-8.5-9.7c0,0,0,0,0.1,0
	c-1.5-1.2-3.2-2.3-5-3.2c0,0,0,0.1,0,0.1c-4.3-2.2-9.4-3.6-15.1-3.6c-5,0.1-9.5,1.2-13.4,3c0,0,0,0,0,0c-6.8,3.3-11.6,8.6-13.9,12.8
	c-1.8,3.1-2.2,5.5-2.4,6.3c-1.4,5.7,0.1,11.4,3.6,15.6C34.3,241.4,36.7,243.1,39.5,244.2z M49.2,221.8c-0.5,0-0.9-0.4-0.9-0.9
	c0-0.5,0.4-0.9,0.9-0.9s0.9,0.4,0.9,0.9C50.1,221.5,49.7,221.8,49.2,221.8z M59.5,229.9l0.1,2.6L59.5,229.9
	C59.5,229.9,59.5,229.9,59.5,229.9c-2.2,0-3.8-1.9-3.4-2.8c0.5-1.4,6-1.6,6.6-0.2C63.1,227.7,61.7,229.8,59.5,229.9z M68.9,221.7
	c-0.5,0-0.9-0.4-0.9-0.9c0-0.5,0.4-0.9,0.9-0.9s0.9,0.4,0.9,0.9C69.9,221.3,69.5,221.7,68.9,221.7z M48.5,204.6
	c0-0.3,5.1-1.2,11.2-0.1c5.9-1,10.8-0.1,10.8,0.2c0,0.2-2.9-0.1-7.2,0.7c1.7,0.5,3.4,1.3,5.1,2.3c4.5,2.7,7,6.5,6.6,6.9
	c-0.5,0.4-5.3-4.9-14-7.8c-0.5-0.2-0.9-0.3-1.3-0.4c-0.5,0.1-1,0.3-1.6,0.5c-8.7,3-13.6,8.3-14,7.8c-0.4-0.4,2.2-4.1,6.6-6.9
	c1.7-1,3.5-1.8,5.3-2.3C51.5,204.5,48.5,204.8,48.5,204.6z"/>
<ellipse cx="49.2" cy="221" rx="0.9" ry="0.9"/>
<ellipse cx="68.9" cy="220.8" rx="0.9" ry="0.9"/>
<path d="M56.1,227.1c-0.3,0.9,1.2,2.9,3.4,2.8c0,0,0,0,0.1,0l0-1.2l0,1.2c2.2-0.1,3.6-2.2,3.2-3C62.1,225.5,56.6,225.7,56.1,227.1z"
	/>
<line class="st33" x1="59.6" y1="232.5" x2="59.5" y2="229.9"/>
<line class="st33" x1="59.5" y1="229.9" x2="59.5" y2="228.7"/>
<g>
	<path class="st16" d="M44,214.6c0.5,0.4,5.3-4.9,14-7.8c0.5-0.2,1-0.3,1.6-0.5c-1.3-0.4-2.5-0.7-3.6-0.9c-1.8,0.5-3.6,1.3-5.3,2.3
		C46.2,210.4,43.6,214.2,44,214.6z"/>
	<path class="st16" d="M70.5,204.7c0-0.3-4.9-1.2-10.8-0.2c1.2,0.2,2.4,0.5,3.6,0.9C67.6,204.6,70.5,204.9,70.5,204.7z"/>
	<path class="st16" d="M60.9,206.7c8.7,3,13.6,8.3,14,7.8c0.4-0.4-2.2-4.1-6.6-6.9c-1.6-1-3.3-1.7-5.1-2.3c-1.2-0.4-2.4-0.7-3.6-0.9
		c-6-1.1-11.2-0.1-11.2,0.1c0,0.2,3-0.1,7.5,0.7c1.1,0.2,2.3,0.5,3.6,0.9C60,206.4,60.5,206.5,60.9,206.7z"/>
</g>
<path class="st34" d="M180.9,162c-4.6-1.9-6.3-7.3-7-9.7c-2.3-7.7-3.4-24.3,26-73.7c10.8-18.1,14.2-21.3,16-20.7
	c2.5,0.9,1.8,8.8,0,23.7c-7.4,60.9-13.4,72.4-22,77.7C192,160.5,186.1,164.1,180.9,162z"/>
<path class="st35" d="M182.7,158c-0.2-0.1-1.7-0.7-3.3,0.2c-1,0.6-1.4,1.5-1.6,1.8c0.5,0.6,1.5,1.4,3,2c1.9,0.8,3.6,0.6,4.4,0.5
	c0.1-0.4,0.2-1.3-0.2-2.3C184.4,158.6,183,158.1,182.7,158z"/>
<path class="st36" d="M181.6,164.3c1.3-0.4,4.1,3.9,9.5,12.7c6.6,10.5,6.8,12.6,6,14.2c-1.4,3-6.4,4.5-9.7,3
	c-0.9-0.4-3.2-1.8-5.2-12.7C181.3,176.2,179.2,165.1,181.6,164.3z"/>
<path class="st36" d="M181,165c1,1-1.7,5.4-7,14.2c-6.4,10.6-8.2,11.7-9.9,11.8c-3.3,0-6.9-3.7-7.1-7.3c0-1,0.1-3.6,9-10.3
	C170.2,170.2,179.2,163.3,181,165z"/>
<path class="st36" d="M181.3,159.9c1.3-0.2,1.4,6.8,1.6,20.9c0.2,17-0.7,20-2.1,22c-2.7,3.8-7.7,4.4-9.7,1.4
	c-0.6-0.9-1.8-3.5,2.1-19.6C175,176.8,178.9,160.3,181.3,159.9z"/>
<g>
	<path class="st37" d="M206.6,137.8c-1.5-0.6-2.8-1.3-4.2-2c-1.4-0.6-2.8-1.2-4.1-1.8c-1.4-0.5-2.8-1.1-4.2-1.6
		c-1.4-0.5-2.9-0.9-4.4-1.5c1.6-0.3,3.2-0.3,4.8,0c1.6,0.2,3.1,0.6,4.6,1.2c1.5,0.6,2.9,1.4,4.2,2.3
		C204.4,135.4,205.6,136.5,206.6,137.8z"/>
</g>
<g>
	<path class="st37" d="M209.7,124.1c-1.4-0.5-2.6-1-3.9-1.5c-1.3-0.5-2.5-1-3.8-1.4c-1.3-0.4-2.5-0.9-3.8-1.3
		c-1.3-0.4-2.6-0.8-4-1.3c1.4-0.3,2.9-0.4,4.3-0.2c1.4,0.1,2.8,0.5,4.2,0.9c1.4,0.5,2.6,1.1,3.8,1.9
		C207.7,122.1,208.8,123,209.7,124.1z"/>
</g>
<g>
	<path class="st37" d="M211.9,109.3c-0.9-0.1-1.7-0.4-2.5-0.6c-0.8-0.2-1.6-0.5-2.3-0.7c-0.8-0.3-1.5-0.5-2.3-0.8
		c-0.8-0.3-1.5-0.6-2.4-1.1c0.9-0.4,1.8-0.5,2.7-0.4c0.9,0,1.8,0.2,2.6,0.5c0.8,0.3,1.6,0.7,2.4,1.2
		C210.8,107.8,211.5,108.4,211.9,109.3z"/>
</g>
<g>
	<path class="st37" d="M213.7,99c-0.8,0.1-1.5,0-2.2-0.1c-0.7-0.1-1.3-0.3-2-0.6c-0.7-0.2-1.3-0.4-1.9-0.8c-0.6-0.3-1.2-0.7-1.8-1.3
		c0.8-0.2,1.5-0.2,2.2-0.2c0.7,0.1,1.4,0.2,2.1,0.4c0.7,0.3,1.3,0.6,1.9,1C212.7,97.9,213.3,98.4,213.7,99z"/>
</g>
<g>
	<path class="st37" d="M214.9,89.3c-0.6,0.1-1.1,0.1-1.6,0.1c-0.5,0-0.9-0.1-1.4-0.3c-0.4-0.1-0.8-0.3-1.3-0.6
		c-0.4-0.3-0.8-0.6-1.2-1.1c0.5-0.3,1.1-0.4,1.6-0.5c0.5,0,1,0.1,1.5,0.2c0.5,0.2,0.9,0.4,1.3,0.8C214.3,88.3,214.7,88.7,214.9,89.3
		z"/>
</g>
</svg>
