<?xml version="1.0" encoding="utf-8"?>
<!-- Generator: Adobe Illustrator 21.0.0, SVG Export Plug-In . SVG Version: 6.00 Build 0)  -->
<svg version="1.1" id="Layer_1" xmlns="http://www.w3.org/2000/svg" xmlns:xlink="http://www.w3.org/1999/xlink" x="0px" y="0px"
	 viewBox="0 0 289.9 389.4" style="enable-background:new 0 0 289.9 389.4;" xml:space="preserve">
<style type="text/css">
	.st0{fill:#27AAE1;stroke:#27AAE1;stroke-miterlimit:10;}
	.st1{fill:#939598;stroke:#939598;stroke-miterlimit:10;}
	.st2{fill:#E6E7E8;stroke:#D1D3D4;stroke-miterlimit:10;}
	.st3{fill:#333A3F;stroke:#333A3F;stroke-miterlimit:10;}
	.st4{fill:#50606C;stroke:#50606C;stroke-miterlimit:10;}
	.st5{fill:#FECD87;}
	.st6{fill:url(#SVGID_1_);}
	.st7{fill:url(#SVGID_2_);}
	.st8{fill:url(#SVGID_3_);}
	.st9{fill:url(#SVGID_4_);}
	.st10{fill:url(#SVGID_5_);}
	.st11{opacity:0.25;fill:url(#SVGID_6_);}
	.st12{opacity:0.25;fill:url(#SVGID_7_);}
	.st13{opacity:0.25;fill:url(#SVGID_8_);}
	.st14{opacity:0.25;fill:url(#SVGID_9_);}
	.st15{opacity:0.25;fill:url(#SVGID_10_);}
	.st16{fill:url(#SVGID_11_);}
	.st17{opacity:0.25;fill:url(#SVGID_12_);}
	.st18{fill:url(#SVGID_13_);}
	.st19{opacity:0.25;fill:url(#SVGID_14_);}
	.st20{fill:url(#SVGID_15_);}
	.st21{opacity:0.25;fill:url(#SVGID_16_);}
	.st22{fill:url(#SVGID_17_);}
	.st23{opacity:0.25;fill:url(#SVGID_18_);}
	.st24{fill:none;stroke:#000000;stroke-width:0;stroke-linecap:round;stroke-linejoin:round;}
	.st25{fill:#FEC67C;stroke:#FEC67C;stroke-miterlimit:10;}
	.st26{fill:#FCB765;stroke:#FCB765;stroke-miterlimit:10;}
	.st27{fill:none;stroke:#A97C50;stroke-width:2;stroke-miterlimit:10;}
	.st28{fill:none;stroke:#A97C50;stroke-width:3;stroke-miterlimit:10;}
	.st29{fill:#9A826E;stroke:#9A826E;stroke-miterlimit:10;}
	.st30{fill:#754C29;stroke:#754C29;stroke-miterlimit:10;}
	.st31{fill:#60412A;stroke:#60412A;stroke-miterlimit:10;}
	.st32{fill:#58595B;stroke:#58595B;stroke-miterlimit:10;}
	.st33{fill:#626464;stroke:#626464;stroke-miterlimit:10;}
	.st34{fill:#8B5E3C;stroke:#A97C50;stroke-miterlimit:10;}
	.st35{fill:url(#SVGID_19_);}
	.st36{fill:url(#SVGID_20_);}
	.st37{fill:url(#SVGID_21_);}
	.st38{fill:url(#SVGID_22_);}
	.st39{fill:#F16782;stroke:#F16782;stroke-linecap:round;stroke-miterlimit:10;}
	.st40{stroke:#FCB765;stroke-miterlimit:10;}
	.st41{fill:#F58E92;stroke:#F58E92;stroke-width:0.25;stroke-miterlimit:10;}
	.st42{fill:#FFFFFF;stroke:#FFFFFF;stroke-width:0.25;stroke-miterlimit:10;}
	.st43{fill:#F283AE;stroke:#F283AE;stroke-miterlimit:10;}
</style>
<path class="st0" d="M80.1,356"/>
<path class="st1" d="M1.6,304c1.9-5.3,15.1-5.6,28-6c12.2-0.3,18.3-0.5,23.5,3.5c11.3,8.7,11.9,32.7,3,38.5
	C41.8,349.4-2.4,315,1.6,304z"/>
<path class="st2" d="M61.3,315.7c-0.5-2.1-1.2-4.1-2-6.1c-9.3-0.3-18.9-0.8-28.9-1.6c-9.2-0.7-18.1-1.6-26.8-2.5
	c6.5,3.2,15.9,7,27.6,9.1C43.4,316.8,53.9,316.5,61.3,315.7z"/>
<path class="st3" d="M45.6,298.5c5.2-6.3,13-0.3,47,0c31.6,0.3,56.5-2,56.5-2c11.2-1.1,22.5-2.7,26,3c1.9,3,1.4,7.9-1,11
	c-5,6.3-14.5-0.1-26.5,6c-0.8,0.4-0.5,0.3-13.5,12c-10.3,9.2-12,10.7-14,14c-2.3,3.8-6.2,10.1-5,17c2.5,14.5,25.9,21.7,24,26.5
	c-0.5,1.3-2.5,0.7-18.5,1.5c-9.5,0.5-11.7,0.8-14.5-1c-3.5-2.3-4-5.5-8.5-7c-2.7-0.9-5.1-0.6-6-0.5c-5.7,0.9-6.9,5.2-12.5,7.5
	c-2.3,1-3.8,0.9-10,1c-19.5,0.2-22.1,0.7-22.5-0.5c-1.2-3.5,19.8-8.1,23-22c1.5-6.4-0.8-14.7-6-18.5c-6.5-4.7-13.5,0.7-18.5-4
	c-1.9-1.8-3-4.5-2.5-18.5C43.2,308.8,43.4,301.1,45.6,298.5z"/>
<path class="st4" d="M175.1,299.5c-0.7-1.1-2.4-3.8-10.1-4.1c-4.7-0.2-10.3,0.5-15.9,1.1c0,0-24.9,2.3-56.5,2
	c-29.8-0.3-39.5-5-44.9-1.8c-1.2,0.7-2.1,1.8-2.1,1.8c-1.4,1.8-1.7,4-1.7,5.3c19.3,2.3,41.4,3.9,65.7,3.7
	c24.6-0.2,46.9-2.1,66.3-4.8C175.9,301.8,175.8,300.6,175.1,299.5z"/>
<path class="st5" d="M55.3,275.9c0.1-0.2,0.1-0.5,0.2-1C55.4,275.4,55.3,275.7,55.3,275.9z"/>
<path class="st5" d="M55.5,274.8c0.3-1.5,1.1-4.1,2.7-7.2C56.6,270.7,55.9,273.3,55.5,274.8z"/>
<radialGradient id="SVGID_1_" cx="-220.9196" cy="-152.0356" r="239.4998" fx="-211.7605" fy="-146.1374" gradientTransform="matrix(0.2481 7.816824e-03 -7.975853e-03 0.2432 145.7487 285.8406)" gradientUnits="userSpaceOnUse">
	<stop  offset="0" style="stop-color:#A51E22;stop-opacity:0.6512"/>
	<stop  offset="0" style="stop-color:#A51E22;stop-opacity:0.9"/>
	<stop  offset="0.7012" style="stop-color:#A51E22;stop-opacity:0.6512"/>
	<stop  offset="1" style="stop-color:#FFCC5F;stop-opacity:0.9"/>
</radialGradient>
<path class="st6" d="M100.2,247.4c0.2,0,0.3,0.1,0.5,0.1C100.5,247.5,100.4,247.5,100.2,247.4z"/>
<radialGradient id="SVGID_2_" cx="-220.9196" cy="-152.0356" r="239.4998" fx="-211.7605" fy="-146.1374" gradientTransform="matrix(0.2481 7.816824e-03 -7.975853e-03 0.2432 145.7487 285.8406)" gradientUnits="userSpaceOnUse">
	<stop  offset="0" style="stop-color:#A51E22;stop-opacity:0.6512"/>
	<stop  offset="0" style="stop-color:#A51E22;stop-opacity:0.9"/>
	<stop  offset="0.7012" style="stop-color:#A51E22;stop-opacity:0.6512"/>
	<stop  offset="1" style="stop-color:#FFCC5F;stop-opacity:0.9"/>
</radialGradient>
<path class="st7" d="M55.5,275c0-0.1,0-0.1,0-0.2C55.5,274.9,55.5,274.9,55.5,275z"/>
<radialGradient id="SVGID_3_" cx="-220.9196" cy="-152.0356" r="239.4998" fx="-211.7605" fy="-146.1374" gradientTransform="matrix(0.2481 7.816824e-03 -7.975853e-03 0.2432 145.7487 285.8406)" gradientUnits="userSpaceOnUse">
	<stop  offset="0" style="stop-color:#A51E22;stop-opacity:0.6512"/>
	<stop  offset="0" style="stop-color:#A51E22;stop-opacity:0.9"/>
	<stop  offset="0.7012" style="stop-color:#A51E22;stop-opacity:0.6512"/>
	<stop  offset="1" style="stop-color:#FFCC5F;stop-opacity:0.9"/>
</radialGradient>
<path class="st8" d="M93.4,246.7c2.2,0,4.2,0.2,6.2,0.6c-2.3-0.4-4.6-0.6-7.1-0.6c-6.3,0.1-11.9,1.6-16.7,4.1c0,0.1,0,0.1,0,0.2
	C80.7,248.4,86.6,246.7,93.4,246.7z"/>
<radialGradient id="SVGID_4_" cx="-220.9196" cy="-152.0356" r="239.4998" fx="-211.7605" fy="-146.1374" gradientTransform="matrix(0.2481 7.816824e-03 -7.975853e-03 0.2432 145.7487 285.8406)" gradientUnits="userSpaceOnUse">
	<stop  offset="0" style="stop-color:#A51E22;stop-opacity:0.6512"/>
	<stop  offset="0" style="stop-color:#A51E22;stop-opacity:0.9"/>
	<stop  offset="0.7012" style="stop-color:#A51E22;stop-opacity:0.6512"/>
	<stop  offset="1" style="stop-color:#FFCC5F;stop-opacity:0.9"/>
</radialGradient>
<path class="st9" d="M71,253.8c0,0-0.1-0.1-0.1-0.1c-5.9,4.1-10.2,9.4-12.6,13.9C60.8,263,65.1,257.8,71,253.8z"/>
<path class="st5" d="M55.4,276.1c0.2-1,0.7-4.2,3-8.3c3-5.5,8.9-12.5,17.4-16.9c0-0.1,0-0.1,0-0.2c-1.8,0.9-3.4,1.9-4.9,3
	c0,0,0.1,0.1,0.1,0.1c-5.9,4-10.2,9.2-12.7,13.8c-1.7,3.1-2.4,5.6-2.7,7.2c0,0.1,0,0.1,0,0.2c-0.1,0.4-0.2,0.7-0.2,1
	c-1.8,7.9,0.3,15.9,5.2,21.5C55.7,291.9,53.6,283.9,55.4,276.1z"/>
<radialGradient id="SVGID_5_" cx="-220.9196" cy="-152.0356" r="239.4998" fx="-211.7605" fy="-146.1374" gradientTransform="matrix(0.2481 7.816824e-03 -7.975853e-03 0.2432 145.7487 285.8406)" gradientUnits="userSpaceOnUse">
	<stop  offset="0" style="stop-color:#A51E22;stop-opacity:0.6512"/>
	<stop  offset="0" style="stop-color:#A51E22;stop-opacity:0.9"/>
	<stop  offset="0.7012" style="stop-color:#A51E22;stop-opacity:0.6512"/>
	<stop  offset="1" style="stop-color:#FFCC5F;stop-opacity:0.9"/>
</radialGradient>
<path class="st10" d="M55.4,276.1c0.2-1,0.7-4.2,3-8.3c3-5.5,8.9-12.5,17.4-16.9c0-0.1,0-0.1,0-0.2c-1.8,0.9-3.4,1.9-4.9,3
	c0,0,0.1,0.1,0.1,0.1c-5.9,4-10.2,9.2-12.7,13.8c-1.7,3.1-2.4,5.6-2.7,7.2c0,0.1,0,0.1,0,0.2c-0.1,0.4-0.2,0.7-0.2,1
	c-1.8,7.9,0.3,15.9,5.2,21.5C55.7,291.9,53.6,283.9,55.4,276.1z"/>
<radialGradient id="SVGID_6_" cx="-221.5599" cy="-111.3752" r="148.3579" fx="-216.1476" fy="-107.3445" gradientTransform="matrix(0.1397 0.2012 -0.201 0.134 100.2184 316.5223)" gradientUnits="userSpaceOnUse">
	<stop  offset="0" style="stop-color:#A51E22;stop-opacity:0.9"/>
	<stop  offset="0.7012" style="stop-color:#A51E22;stop-opacity:0.6512"/>
	<stop  offset="1" style="stop-color:#FFCC5F;stop-opacity:0.9"/>
</radialGradient>
<path class="st11" d="M111.2,251.5c-3.1-1.7-6.7-3.1-10.5-3.9C104.6,248.4,108.1,249.8,111.2,251.5
	C111.2,251.5,111.2,251.5,111.2,251.5z"/>
<radialGradient id="SVGID_7_" cx="-221.5599" cy="-111.3752" r="148.3579" fx="-216.1476" fy="-107.3445" gradientTransform="matrix(0.1397 0.2012 -0.201 0.134 100.2184 316.5223)" gradientUnits="userSpaceOnUse">
	<stop  offset="0" style="stop-color:#A51E22;stop-opacity:0.9"/>
	<stop  offset="0.7012" style="stop-color:#A51E22;stop-opacity:0.6512"/>
	<stop  offset="1" style="stop-color:#FFCC5F;stop-opacity:0.9"/>
</radialGradient>
<path class="st12" d="M99.6,247.3c0.2,0,0.4,0.1,0.6,0.1C100,247.4,99.8,247.4,99.6,247.3z"/>
<radialGradient id="SVGID_8_" cx="-221.5599" cy="-111.3752" r="148.3579" fx="-216.1476" fy="-107.3445" gradientTransform="matrix(0.1397 0.2012 -0.201 0.134 100.2184 316.5223)" gradientUnits="userSpaceOnUse">
	<stop  offset="0" style="stop-color:#A51E22;stop-opacity:0.9"/>
	<stop  offset="0.7012" style="stop-color:#A51E22;stop-opacity:0.6512"/>
	<stop  offset="1" style="stop-color:#FFCC5F;stop-opacity:0.9"/>
</radialGradient>
<path class="st13" d="M131.2,280.6c-0.1-1.2-0.2-5.9-3.2-11.8c-2.1-4.1-5.7-9-10.6-13.1c0,0,0,0,0,0c4.8,4,8.3,8.7,10.5,12.9
	c2.3,4.4,2.8,8.2,3.1,10.3c0.1,0.7,0.1,1.1,0.1,1.4c1,9.2-3.7,18.2-11.6,22c-0.1,0-0.1,0-0.2,0.1c-5.9,2.8-9.2,1.9-24.4,2
	c-17.7,0.1-20,1.2-26.1-1.1c-0.1,0-0.1-0.1-0.2-0.1c-3.2-1.3-6-3.3-8.2-5.8c2.2,2.6,5.1,4.7,8.3,6c0.1,0,0.1,0.1,0.2,0.1
	c6,2.4,8.4,1.2,26.1,1.1c15.2-0.1,18.5,0.8,24.4-2c0.1,0,0.1,0,0.2-0.1C127.6,298.8,132.2,289.8,131.2,280.6z"/>
<path class="st5" d="M117.4,255.7C117.4,255.7,117.4,255.7,117.4,255.7c-1.8-1.6-3.9-3-6.2-4.3c0,0,0,0,0,0.1
	C113.5,252.8,115.5,254.2,117.4,255.7z"/>
<radialGradient id="SVGID_9_" cx="-221.5599" cy="-111.3752" r="148.3579" fx="-216.1476" fy="-107.3445" gradientTransform="matrix(0.1397 0.2012 -0.201 0.134 100.2184 316.5223)" gradientUnits="userSpaceOnUse">
	<stop  offset="0" style="stop-color:#A51E22;stop-opacity:0.9"/>
	<stop  offset="0.7012" style="stop-color:#A51E22;stop-opacity:0.6512"/>
	<stop  offset="1" style="stop-color:#FFCC5F;stop-opacity:0.9"/>
</radialGradient>
<path class="st14" d="M117.4,255.7C117.4,255.7,117.4,255.7,117.4,255.7c-1.8-1.6-3.9-3-6.2-4.3c0,0,0,0,0,0.1
	C113.5,252.8,115.5,254.2,117.4,255.7z"/>
<path class="st5" d="M127.9,268.6c2.3,4.4,2.8,8.2,3.1,10.3C130.7,276.8,130.1,273,127.9,268.6z"/>
<radialGradient id="SVGID_10_" cx="-221.5599" cy="-111.3752" r="148.3579" fx="-216.1476" fy="-107.3445" gradientTransform="matrix(0.1397 0.2012 -0.201 0.134 100.2184 316.5223)" gradientUnits="userSpaceOnUse">
	<stop  offset="0" style="stop-color:#A51E22;stop-opacity:0.9"/>
	<stop  offset="0.7012" style="stop-color:#A51E22;stop-opacity:0.6512"/>
	<stop  offset="1" style="stop-color:#FFCC5F;stop-opacity:0.9"/>
</radialGradient>
<path class="st15" d="M127.9,268.6c2.3,4.4,2.8,8.2,3.1,10.3C130.7,276.8,130.1,273,127.9,268.6z"/>
<radialGradient id="SVGID_11_" cx="-220.9196" cy="-152.0356" r="239.4998" fx="-211.7605" fy="-146.1374" gradientTransform="matrix(0.2481 7.816824e-03 -7.975853e-03 0.2432 145.7487 285.8406)" gradientUnits="userSpaceOnUse">
	<stop  offset="0" style="stop-color:#A51E22;stop-opacity:0.6512"/>
	<stop  offset="0" style="stop-color:#A51E22;stop-opacity:0.9"/>
	<stop  offset="0.7012" style="stop-color:#A51E22;stop-opacity:0.6512"/>
	<stop  offset="1" style="stop-color:#FFCC5F;stop-opacity:0.9"/>
</radialGradient>
<path class="st16" d="M75.8,250.9C75.8,251,75.8,251,75.8,250.9c4.8-2.4,10.4-3.9,16.6-4c7.1-0.1,13.5,1.8,18.8,4.7
	c0-0.1,0-0.1,0-0.2c-3.2-1.8-6.7-3.2-10.5-4c-0.2,0-0.3-0.1-0.5-0.1c-0.2,0-0.4-0.1-0.6-0.1c-2-0.3-4.1-0.6-6.2-0.6
	C86.6,246.7,80.7,248.4,75.8,250.9z"/>
<radialGradient id="SVGID_12_" cx="-221.5599" cy="-111.3752" r="148.3579" fx="-216.1476" fy="-107.3445" gradientTransform="matrix(0.1397 0.2012 -0.201 0.134 100.2184 316.5223)" gradientUnits="userSpaceOnUse">
	<stop  offset="0" style="stop-color:#A51E22;stop-opacity:0.9"/>
	<stop  offset="0.7012" style="stop-color:#A51E22;stop-opacity:0.6512"/>
	<stop  offset="1" style="stop-color:#FFCC5F;stop-opacity:0.9"/>
</radialGradient>
<path class="st17" d="M75.8,250.9C75.8,251,75.8,251,75.8,250.9c4.8-2.4,10.4-3.9,16.6-4c7.1-0.1,13.5,1.8,18.8,4.7
	c0-0.1,0-0.1,0-0.2c-3.2-1.8-6.7-3.2-10.5-4c-0.2,0-0.3-0.1-0.5-0.1c-0.2,0-0.4-0.1-0.6-0.1c-2-0.3-4.1-0.6-6.2-0.6
	C86.6,246.7,80.7,248.4,75.8,250.9z"/>
<radialGradient id="SVGID_13_" cx="-220.9196" cy="-152.0356" r="239.4998" fx="-211.7605" fy="-146.1374" gradientTransform="matrix(0.2481 7.816824e-03 -7.975853e-03 0.2432 145.7487 285.8406)" gradientUnits="userSpaceOnUse">
	<stop  offset="0" style="stop-color:#A51E22;stop-opacity:0.6512"/>
	<stop  offset="0" style="stop-color:#A51E22;stop-opacity:0.9"/>
	<stop  offset="0.7012" style="stop-color:#A51E22;stop-opacity:0.6512"/>
	<stop  offset="1" style="stop-color:#FFCC5F;stop-opacity:0.9"/>
</radialGradient>
<path class="st18" d="M130.9,279c0.1,0.7,0.1,1.1,0.1,1.4C131,280.1,131,279.6,130.9,279z"/>
<radialGradient id="SVGID_14_" cx="-221.5599" cy="-111.3752" r="148.3579" fx="-216.1476" fy="-107.3445" gradientTransform="matrix(0.1397 0.2012 -0.201 0.134 100.2184 316.5223)" gradientUnits="userSpaceOnUse">
	<stop  offset="0" style="stop-color:#A51E22;stop-opacity:0.9"/>
	<stop  offset="0.7012" style="stop-color:#A51E22;stop-opacity:0.6512"/>
	<stop  offset="1" style="stop-color:#FFCC5F;stop-opacity:0.9"/>
</radialGradient>
<path class="st19" d="M130.9,279c0.1,0.7,0.1,1.1,0.1,1.4C131,280.1,131,279.6,130.9,279z"/>
<radialGradient id="SVGID_15_" cx="-220.9196" cy="-152.0356" r="239.4998" fx="-211.7605" fy="-146.1374" gradientTransform="matrix(0.2481 7.816824e-03 -7.975853e-03 0.2432 145.7487 285.8406)" gradientUnits="userSpaceOnUse">
	<stop  offset="0" style="stop-color:#A51E22;stop-opacity:0.6512"/>
	<stop  offset="0" style="stop-color:#A51E22;stop-opacity:0.9"/>
	<stop  offset="0.7012" style="stop-color:#A51E22;stop-opacity:0.6512"/>
	<stop  offset="1" style="stop-color:#FFCC5F;stop-opacity:0.9"/>
</radialGradient>
<path class="st20" d="M127.9,268.6c-2.1-4.2-5.7-8.9-10.5-12.9c0,0-0.1,0-0.1,0.1C122.1,259.7,125.7,264.3,127.9,268.6z"/>
<radialGradient id="SVGID_16_" cx="-221.5599" cy="-111.3752" r="148.3579" fx="-216.1476" fy="-107.3445" gradientTransform="matrix(0.1397 0.2012 -0.201 0.134 100.2184 316.5223)" gradientUnits="userSpaceOnUse">
	<stop  offset="0" style="stop-color:#A51E22;stop-opacity:0.9"/>
	<stop  offset="0.7012" style="stop-color:#A51E22;stop-opacity:0.6512"/>
	<stop  offset="1" style="stop-color:#FFCC5F;stop-opacity:0.9"/>
</radialGradient>
<path class="st21" d="M127.9,268.6c-2.1-4.2-5.7-8.9-10.5-12.9c0,0-0.1,0-0.1,0.1C122.1,259.7,125.7,264.3,127.9,268.6z"/>
<path class="st5" d="M68.6,303.2c0.1,0,0.1,0.1,0.2,0.1c6,2.4,8.4,1.2,26.1,1.1c15.2-0.1,18.5,0.8,24.4-2c0.1,0,0.1,0,0.2-0.1
	c7.9-3.8,12.6-12.8,11.6-22c0-0.3-0.1-0.8-0.1-1.4c-0.2-2.1-0.8-5.9-3.1-10.3c-2.2-4.3-5.8-8.9-10.6-12.8c0,0,0.1,0,0.1-0.1
	c-1.9-1.5-3.9-3-6.2-4.2c0,0.1,0,0.1,0,0.2c-5.4-2.9-11.7-4.8-18.8-4.7c-6.2,0.1-11.8,1.6-16.6,4c0,0,0,0,0,0
	c-8.5,4.4-14.4,11.4-17.4,16.9c-2.2,4.1-2.7,7.3-3,8.3c-1.8,7.8,0.3,15.7,5,21.3C62.7,299.9,65.4,302,68.6,303.2z M80.7,273.7
	c-0.6,0-1.2-0.5-1.2-1.1c0-0.6,0.5-1.1,1.2-1.1c0.6,0,1.2,0.5,1.2,1.1C81.9,273.2,81.4,273.7,80.7,273.7z M93.5,284.3l0.1,3.5
	L93.5,284.3C93.5,284.3,93.5,284.3,93.5,284.3c-2.8,0.1-4.7-2.6-4.3-3.7c0.6-1.8,7.5-2.1,8.2-0.3C98,281.4,96.3,284.2,93.5,284.3z
	 M105.3,273.5c-0.6,0-1.2-0.5-1.2-1.1s0.5-1.1,1.2-1.1s1.2,0.5,1.2,1.1S105.9,273.5,105.3,273.5z M79.8,250.9
	c0-0.3,6.4-1.6,13.9-0.2c7.3-1.3,13.4-0.1,13.5,0.3c0,0.3-3.6-0.1-9,0.9c2.1,0.7,4.3,1.7,6.3,3c5.6,3.6,8.7,8.6,8.3,9.1
	c-0.6,0.6-6.6-6.5-17.5-10.4c-0.6-0.2-1.1-0.4-1.7-0.6c-0.6,0.2-1.3,0.4-1.9,0.6c-10.9,3.9-16.9,11-17.5,10.4
	c-0.4-0.5,2.7-5.5,8.3-9.1c2.1-1.4,4.4-2.4,6.6-3.1C83.5,250.8,79.8,251.2,79.8,250.9z"/>
<radialGradient id="SVGID_17_" cx="-220.9196" cy="-152.0356" r="239.4998" fx="-211.7605" fy="-146.1374" gradientTransform="matrix(0.2481 7.816824e-03 -7.975853e-03 0.2432 145.7487 285.8406)" gradientUnits="userSpaceOnUse">
	<stop  offset="0" style="stop-color:#A51E22;stop-opacity:0.6512"/>
	<stop  offset="0" style="stop-color:#A51E22;stop-opacity:0.9"/>
	<stop  offset="0.7012" style="stop-color:#A51E22;stop-opacity:0.6512"/>
	<stop  offset="1" style="stop-color:#FFCC5F;stop-opacity:0.9"/>
</radialGradient>
<path class="st22" d="M68.6,303.2c0.1,0,0.1,0.1,0.2,0.1c6,2.4,8.4,1.2,26.1,1.1c15.2-0.1,18.5,0.8,24.4-2c0.1,0,0.1,0,0.2-0.1
	c7.9-3.8,12.6-12.8,11.6-22c0-0.3-0.1-0.8-0.1-1.4c-0.2-2.1-0.8-5.9-3.1-10.3c-2.2-4.3-5.8-8.9-10.6-12.8c0,0,0.1,0,0.1-0.1
	c-1.9-1.5-3.9-3-6.2-4.2c0,0.1,0,0.1,0,0.2c-5.4-2.9-11.7-4.8-18.8-4.7c-6.2,0.1-11.8,1.6-16.6,4c0,0,0,0,0,0
	c-8.5,4.4-14.4,11.4-17.4,16.9c-2.2,4.1-2.7,7.3-3,8.3c-1.8,7.8,0.3,15.7,5,21.3C62.7,299.9,65.4,302,68.6,303.2z M80.7,273.7
	c-0.6,0-1.2-0.5-1.2-1.1c0-0.6,0.5-1.1,1.2-1.1c0.6,0,1.2,0.5,1.2,1.1C81.9,273.2,81.4,273.7,80.7,273.7z M93.5,284.3l0.1,3.5
	L93.5,284.3C93.5,284.3,93.5,284.3,93.5,284.3c-2.8,0.1-4.7-2.6-4.3-3.7c0.6-1.8,7.5-2.1,8.2-0.3C98,281.4,96.3,284.2,93.5,284.3z
	 M105.3,273.5c-0.6,0-1.2-0.5-1.2-1.1s0.5-1.1,1.2-1.1s1.2,0.5,1.2,1.1S105.9,273.5,105.3,273.5z M79.8,250.9
	c0-0.3,6.4-1.6,13.9-0.2c7.3-1.3,13.4-0.1,13.5,0.3c0,0.3-3.6-0.1-9,0.9c2.1,0.7,4.3,1.7,6.3,3c5.6,3.6,8.7,8.6,8.3,9.1
	c-0.6,0.6-6.6-6.5-17.5-10.4c-0.6-0.2-1.1-0.4-1.7-0.6c-0.6,0.2-1.3,0.4-1.9,0.6c-10.9,3.9-16.9,11-17.5,10.4
	c-0.4-0.5,2.7-5.5,8.3-9.1c2.1-1.4,4.4-2.4,6.6-3.1C83.5,250.8,79.8,251.2,79.8,250.9z"/>
<radialGradient id="SVGID_18_" cx="-221.5599" cy="-111.3752" r="148.3579" fx="-216.1476" fy="-107.3445" gradientTransform="matrix(0.1397 0.2012 -0.201 0.134 100.2184 316.5223)" gradientUnits="userSpaceOnUse">
	<stop  offset="0" style="stop-color:#A51E22;stop-opacity:0.9"/>
	<stop  offset="0.7012" style="stop-color:#A51E22;stop-opacity:0.6512"/>
	<stop  offset="1" style="stop-color:#FFCC5F;stop-opacity:0.9"/>
</radialGradient>
<path class="st23" d="M68.6,303.2c0.1,0,0.1,0.1,0.2,0.1c6,2.4,8.4,1.2,26.1,1.1c15.2-0.1,18.5,0.8,24.4-2c0.1,0,0.1,0,0.2-0.1
	c7.9-3.8,12.6-12.8,11.6-22c0-0.3-0.1-0.8-0.1-1.4c-0.2-2.1-0.8-5.9-3.1-10.3c-2.2-4.3-5.8-8.9-10.6-12.8c0,0,0.1,0,0.1-0.1
	c-1.9-1.5-3.9-3-6.2-4.2c0,0.1,0,0.1,0,0.2c-5.4-2.9-11.7-4.8-18.8-4.7c-6.2,0.1-11.8,1.6-16.6,4c0,0,0,0,0,0
	c-8.5,4.4-14.4,11.4-17.4,16.9c-2.2,4.1-2.7,7.3-3,8.3c-1.8,7.8,0.3,15.7,5,21.3C62.7,299.9,65.4,302,68.6,303.2z M80.7,273.7
	c-0.6,0-1.2-0.5-1.2-1.1c0-0.6,0.5-1.1,1.2-1.1c0.6,0,1.2,0.5,1.2,1.1C81.9,273.2,81.4,273.7,80.7,273.7z M93.5,284.3l0.1,3.5
	L93.5,284.3C93.5,284.3,93.5,284.3,93.5,284.3c-2.8,0.1-4.7-2.6-4.3-3.7c0.6-1.8,7.5-2.1,8.2-0.3C98,281.4,96.3,284.2,93.5,284.3z
	 M105.3,273.5c-0.6,0-1.2-0.5-1.2-1.1s0.5-1.1,1.2-1.1s1.2,0.5,1.2,1.1S105.9,273.5,105.3,273.5z M79.8,250.9
	c0-0.3,6.4-1.6,13.9-0.2c7.3-1.3,13.4-0.1,13.5,0.3c0,0.3-3.6-0.1-9,0.9c2.1,0.7,4.3,1.7,6.3,3c5.6,3.6,8.7,8.6,8.3,9.1
	c-0.6,0.6-6.6-6.5-17.5-10.4c-0.6-0.2-1.1-0.4-1.7-0.6c-0.6,0.2-1.3,0.4-1.9,0.6c-10.9,3.9-16.9,11-17.5,10.4
	c-0.4-0.5,2.7-5.5,8.3-9.1c2.1-1.4,4.4-2.4,6.6-3.1C83.5,250.8,79.8,251.2,79.8,250.9z"/>
<ellipse cx="80.7" cy="272.6" rx="1.2" ry="1.1"/>
<ellipse cx="105.3" cy="272.3" rx="1.2" ry="1.1"/>
<path d="M89.3,280.6c-0.4,1.2,1.5,3.8,4.2,3.7c0,0,0.1,0,0.1,0l-0.1-1.5l0.1,1.5c2.7-0.1,4.4-2.9,4-4
	C96.8,278.5,89.9,278.8,89.3,280.6z"/>
<line class="st24" x1="93.5" y1="284.3" x2="93.5" y2="282.8"/>
<line class="st24" x1="93.7" y1="287.8" x2="93.5" y2="284.3"/>
<path class="st5" d="M74.3,264.1c0.6,0.6,6.6-6.5,17.5-10.4c0.7-0.2,1.3-0.4,1.9-0.6c0.5,0.2,1.1,0.4,1.7,0.6
	c10.9,3.9,16.9,11,17.5,10.4c0.4-0.5-2.7-5.5-8.3-9.1c-2-1.3-4.2-2.3-6.3-3c5.4-1,9-0.6,9-0.9c0-0.3-6.2-1.6-13.5-0.3
	c-7.5-1.4-13.9-0.2-13.9,0.2c0,0.3,3.7-0.2,9.3,1c-2.2,0.7-4.5,1.7-6.6,3.1C77,258.6,73.8,263.6,74.3,264.1z"/>
<g>
	<path class="st25" d="M279.4,212c2.4,0.9,2.7,4.5,1,6.4c-1.7,1.9-4.5,2.3-7.1,2l2.7-1.9c-1.6,0.2-3.3-0.7-4.3-1.9
		c-1.1-1.2-1.6-2.8-2.1-4.4c-1.2-4-1.3-9.1,2.1-11.5c1.5-1.1,3.6-1.4,5.1-0.4c1.5,1,1.9,3.5,0.5,4.7c2-1.5,5.3-0.4,6,2
		C284.1,209.3,281.9,212,279.4,212z"/>
	<g>
		<path class="st25" d="M280.6,209c3.5,1.9,5.1,5.7,3.5,9.4c-1.9,4.4-6.8,5.4-11.1,5.1c-2.7-0.2-3.9-4.1-1.6-5.6
			c0.9-0.6,1.8-1.3,2.7-1.9c0.5,1.9,1.1,3.8,1.6,5.6c-9.1,0.1-12.2-14.1-8.4-20.6c2.1-3.6,6.9-5.9,10.8-3.7c3.5,1.9,4.4,6.5,1.9,9.5
			c-1.3-1.6-2.6-3.2-3.9-4.8c3.6-2.1,8.8-0.4,10.2,3.6c1.6,4.5-2,8.8-6.4,9.5c-4.1,0.6-5-5.7-0.9-6.3c1-1.4,0.9-1.8-0.2-1
			c-2.8,1.6-5.8-2.4-3.9-4.8c-0.8-0.3-1.5,0-1.9,0.9c-0.2,0.4-0.3,0.7-0.5,1.1c-0.5,1.2-0.3,2.8-0.2,4.1c0.3,2.4,1.1,6.2,4.2,6.2
			c2.8,0,3.7,4.1,1.6,5.6c-0.9,0.6-1.8,1.3-2.7,1.9c-0.5-1.9-1.1-3.8-1.6-5.6c1.1,0.1,3.1,0.2,3.9-0.6c0.3-0.3,1.1-1.4,0.6-1.7
			C274.6,213,277,207,280.6,209z"/>
	</g>
</g>
<path class="st26" d="M199.7,240c6-2.3,15,0.6,18.2,6.5c3.4,6.1-0.7,13.3-4.7,20.2c-3.8,6.5-11.1,19.1-22.6,18.4
	c-6.7-0.4-14.5-5.2-15.3-10.6c-0.7-4.9,4.6-6.4,12.4-17.4C195,246.5,194.3,242,199.7,240z"/>
<path class="st26" d="M173.9,176.8c6.2-2.4,15.5,1.6,18.5,7.9c1.3,2.8,1.1,5.6-8.5,27c-7,15.7-8.8,18.2-12.2,19
	c-5.7,1.4-13.1-3.1-15.3-9c-1.7-4.6,0.7-7.4,6.3-21.7C169.7,182.6,169.4,178.6,173.9,176.8z"/>
<path class="st26" d="M136.1,99.8c10.2-3.2-1.9-91.9-12-92c-6.6,0-18.9,37.6-4.5,70C122.9,85.2,131.5,101.2,136.1,99.8z"/>
<path class="st25" d="M207.3,147.7c16,0.1,26.2,11.9,38.6,26.5c8.4,9.9,37.3,43.5,25.4,65.6c-5.5,10.2-17.5,13.9-29.1,17.5
	c-10.1,3.1-26.5,8.1-39.2-0.5c-1-0.7-13-9.1-14.2-21.9c0,0,0,0,0,0c0,0,0,0,0,0c0,0-0.5-5-4.9-18.8c-8.4-26.7-16-32-12.7-43.4
	C175.4,158.7,191.8,147.6,207.3,147.7z"/>
<path class="st26" d="M214.9,148.6c-1.2-0.4-2.7-0.9-4.6-1.3c0,0-2.8-0.6-5.7-0.6c-14.5-0.1-29.8,10.4-33.5,23.6
	c-0.7,2.5-0.7,4.8-0.7,4.8c0,1.5,0.2,2.7,0.4,3.4c4.8,0.3,8.6-0.4,11-1c6.7-1.7,11.2-5.2,16.3-9c2.2-1.6,4.8-3.6,7.8-6.8
	C210.4,156.9,213.2,152.1,214.9,148.6z"/>
<line class="st27" x1="171.9" y1="175.1" x2="172.9" y2="183.4"/>
<line class="st27" x1="188.5" y1="168.2" x2="192.5" y2="174.7"/>
<path class="st28" d="M225.9,214.8c4.5-2.5,10.4-6.3,16.3-12.3c6.6-6.6,10.6-13.4,13-18.2"/>
<path class="st28" d="M256.7,170.6c1.5-0.2,5,5.7,2.7,10.4c-0.9,1.8-2.9,4.1-4.1,3.6C252.9,183.6,254.5,170.8,256.7,170.6z"/>
<path class="st28" d="M266.1,175.9c1.3,0.8,0.3,7.5-4.4,9.7c-1.8,0.9-4.8,1.3-5.4,0.2C255,183.6,264.3,174.7,266.1,175.9z"/>
<path class="st29" d="M194.9,174.2c5.4-0.1,6.7,7.1,17,20.3c16.5,21,22.7,27.5,22.7,27.5c1.9,2,3.9,3.9,3.8,6.5
	c-0.2,6.1-11.5,10-23,14c-12,4.2-18.6,6.4-23.8,3c-3.9-2.5-5-7-6-10.5c-9-33.1-18.8-47.3-12.8-52.3c1.7-1.4,2.4-0.2,8.5-2.3
	C190,177.6,191.2,174.3,194.9,174.2z"/>
<path class="st25" d="M124.2,166.9c11.7,15.6,42.5,15.2,63.5,4.8c5.6-2.8,31.6-15.7,32.8-41.8c1-20.9-14.5-37.4-29.1-44.4
	c-24.9-12.1-56.9-1.5-68.3,18c-6.6,11.4-5.7,25-4.8,38.1C119.2,154.3,119.7,160.9,124.2,166.9z"/>
<path class="st25" d="M200.3,1.4c-12.9-0.6-31.7,91.8-21.6,99.4c6.7,5,32.5-22.4,32.9-59.4C211.7,24.5,206.6,1.7,200.3,1.4z"/>
<path class="st30" d="M104.7,214.4c4.7-6.7,15.8-4.9,29.1-5.3c16-0.5,12.3-3.4,38.1-6.9c40.8-5.5,49,2.5,63.5-6.9
	c3-1.9,10.5-7.3,14.8-4.8c2.1,1.3,3,4.2,4.2,8.5c1.3,4.3,2,6.7,1.1,8.5c-2.3,4.3-13.2,2.6-17.5,2.1c-11.9-1.4-10.2,2.4-51.3,9.5
	c-23.1,4-7,0.6-49.7,6.9c-18.2,2.7-29.8,4.6-33.3-1.1C101.7,221.9,102.6,217.3,104.7,214.4z"/>
<path class="st31" d="M255.7,203.7c-11.9,5.6-24.7-0.2-37.5,2.8c-38.2,11.5-75.5,16.5-113.6,19.6c4.3,4.2,15.6,2.4,32.4,0
	c42.8-6.3,26.6-2.9,49.7-6.9c41.1-7.1,39.5-10.9,51.3-9.5c4.3,0.5,15.2,2.2,17.5-2.1C256,206.5,256,205.3,255.7,203.7z"/>
<path class="st32" d="M86.9,168.4c2-0.2,4.3,4,8.8,12.3c2.9,5.4,2.1,4.8,4.7,9.4c2.7,4.7,4.6,7.1,5.9,11.9c0.3,1,0.5,2,0.5,2.1l0,0
	c3.1,12.5,4.6,24.9,4.6,24.9c1.1,9.5,1.7,14.3,0.3,16.2c-2.4,3.2-7.2,3.8-16.7,4.8c-8.3,0.9-12.5,1.4-15.1-0.7
	c-2.3-1.9-1.7-3.9-3.3-18.7c-0.8-7.3-1.5-13.7-1.6-22.2c-0.1-3.5,0-5.9,0.5-8.8c0.8-5,2.5-7.9,3.8-12.2
	C84,172.5,84.7,168.6,86.9,168.4z"/>
<path class="st33" d="M86.5,168.5c-1.9,0.6-2.8,5-7.3,18.9c-1.4,4.2-3,7.2-3.8,12.2c-0.5,2.9-0.5,5.2-0.5,8.8
	c0.1,8.5,0.8,14.9,1.6,22.2c1.6,14.8,1,16.8,3.3,18.7c1.6,1.3,3.7,1.6,7.1,1.4C84.1,223.5,78.5,195.5,86.5,168.5z"/>
<path class="st25" d="M213.9,174.3c6-2.9,15.6,0.5,19,6.6c1.5,2.7,1.5,5.5-6.6,27.5c-5.9,16.1-7.5,18.8-10.8,19.9
	c-5.6,1.8-13.3-2.2-15.9-7.9c-2.1-4.5,0.2-7.5,4.8-22.1C210.1,180.4,209.5,176.4,213.9,174.3z"/>
<path class="st25" d="M252.7,231.5c6-3.8,15.6-3.8,19.4,0.9c3.1,3.8,1.3,9.6-2.3,21.1c-4.7,15-7.1,22.5-14.3,25.5
	c-6.8,2.8-16.5,0.9-19.4-4.5c-1.8-3.3,0.2-6,5.9-20.9C248.4,237.3,248.4,234.2,252.7,231.5z"/>
<path class="st34" d="M178.4,188.7c1.4-0.4,3.6-1.1,6.3-2c5-1.8,6.1-2.6,7.5-2c2.5,1,4,5.2,2.8,8.5c-1.3,3.4-5,4.4-6.5,4.8
	c-1.4,0.4-3.9,1-6.3-0.3C179.4,196.3,177.9,192.7,178.4,188.7z"/>
<radialGradient id="SVGID_19_" cx="105.8521" cy="263.3671" r="37.328" gradientTransform="matrix(1.0602 0 0 1 -16.6578 0)" gradientUnits="userSpaceOnUse">
	<stop  offset="0" style="stop-color:#F6CB2E"/>
	<stop  offset="0.1386" style="stop-color:#F15A29"/>
	<stop  offset="0.2302" style="stop-color:#F16B2A"/>
	<stop  offset="0.5998" style="stop-color:#F1652A"/>
	<stop  offset="1" style="stop-color:#F9ED32"/>
</radialGradient>
<path class="st35" d="M71.1,245c-3.4-1.1-5.1-1.6-6.6-1.6c-3,0-6.4,1-6.4,2.1c0,0.3,0.3,0.6,0.6,0.8c1,0.8,3.3,0.9,7.9,1.2
	c3.7,0.2,9,0.6,9.9,0c0.1,0,0.1-0.1,0.1-0.1C76.7,246.7,73.1,245.6,71.1,245z"/>
<radialGradient id="SVGID_20_" cx="96.0494" cy="260.6466" r="37.328" gradientTransform="matrix(1.0316 0 0 0.8078 -8.7104 48.734)" gradientUnits="userSpaceOnUse">
	<stop  offset="0" style="stop-color:#F6CB2E"/>
	<stop  offset="0.1386" style="stop-color:#F15A29"/>
	<stop  offset="0.2302" style="stop-color:#F16B2A"/>
	<stop  offset="0.5998" style="stop-color:#F1652A"/>
	<stop  offset="1" style="stop-color:#F9ED32"/>
</radialGradient>
<path class="st36" d="M72.2,239.4c-4.5-3.5-8.3-4.6-9.4-4.9c-0.7-0.2-4.8-1.3-5.4-0.5c-0.6,0.7,2,2.7,3,3.4c2.2,1.7,4.3,2.7,6.6,3.6
	c2.5,1,8.8,3.6,9.5,2.8C77.1,243.1,73.7,240.5,72.2,239.4z"/>
<radialGradient id="SVGID_21_" cx="91.9062" cy="295.6667" r="37.328" gradientTransform="matrix(0.9895 0.1443 -0.1443 0.9895 42.6951 -42.2678)" gradientUnits="userSpaceOnUse">
	<stop  offset="0" style="stop-color:#F6CB2E"/>
	<stop  offset="0.1386" style="stop-color:#F15A29"/>
	<stop  offset="0.2302" style="stop-color:#F16B2A"/>
	<stop  offset="0.5998" style="stop-color:#F1652A"/>
	<stop  offset="1" style="stop-color:#F9ED32"/>
</radialGradient>
<path class="st37" d="M125.9,236c0.5-0.8,2.2-3.8,1.2-4.8c-1-1.1-4.8,1-5.2,1.2c-2.9,1.6-4.4,3.7-6.9,7.3c-6.2,8.9-6.6,9.6-6.3,9.9
	c0.3,0.2,1-0.2,7.4-4.7C121.9,240.8,124.2,239.1,125.9,236z"/>
<radialGradient id="SVGID_22_" cx="97.8249" cy="241.3461" r="37.328" gradientTransform="matrix(0.9939 -0.1105 0.1105 0.9939 -28.4748 37.3918)" gradientUnits="userSpaceOnUse">
	<stop  offset="0" style="stop-color:#F6CB2E"/>
	<stop  offset="0.1386" style="stop-color:#F15A29"/>
	<stop  offset="0.2302" style="stop-color:#F16B2A"/>
	<stop  offset="0.5998" style="stop-color:#F1652A"/>
	<stop  offset="1" style="stop-color:#F9ED32"/>
</radialGradient>
<path class="st38" d="M132.5,239.3c-0.4-0.8-2.8-0.4-3.2-0.3c-2.6,0.5-3.6,1.7-6.3,3.5c-2.4,1.6-8.4,5-9.2,6.5
	c-0.4,0.9,2.3,0,5.9-1.2c7.4-2.5,9-3.6,10.4-4.9C131,242.2,133,240.1,132.5,239.3z"/>
<ellipse transform="matrix(0.9621 -0.2726 0.2726 0.9621 -29.5439 54.8174)" class="st39" cx="182.5" cy="133.7" rx="5.3" ry="5.3"/>
<ellipse transform="matrix(0.9535 -0.3014 0.3014 0.9535 -33.9791 46.8693)" class="st40" cx="134.9" cy="133.5" rx="3.5" ry="10.5"/>
<ellipse transform="matrix(0.9582 -0.2861 0.2861 0.9582 -27.769 53.614)" class="st40" cx="169.6" cy="121.8" rx="3.9" ry="11.1"/>
<g>
	<g>
		<path d="M150.7,146.5c3.7-0.6,7.3-1.8,10.5-3.7c0.7-0.4,0.1-1.5-0.6-1.1c-3.2,1.8-6.6,3-10.2,3.6
			C149.6,145.4,150,146.6,150.7,146.5L150.7,146.5z"/>
	</g>
</g>
<g>
	<g>
		<path d="M155.1,145.2c0.2,1.6,0.5,3.2,1.1,4.7c0.3,0.7,1.5,0.4,1.2-0.3c-0.6-1.4-0.9-2.9-1.1-4.4
			C156.2,144.5,155,144.4,155.1,145.2L155.1,145.2z"/>
	</g>
</g>
<path class="st41" d="M136,163.3c-1.2-6.8,45-23.1,48.3-17.1c1.8,3.2-8.2,14.1-19.7,18.5C152,169.6,136.7,167,136,163.3z"/>
<path class="st42" d="M157.7,152.4c-0.2-0.5-0.5-1-0.5-1c-0.2-0.3-0.3-0.6-0.4-0.8c-0.9,0.3-1.9,0.6-3,1c-1.1,0.5-2.2,0.9-3.1,1.4
	c0.1,0.7,0.4,1.5,0.8,2.8c0.4,1.3,0.7,1.9,1.1,2.2c1.5,0.9,4.9,0,5.8-1.8C158.9,155.2,158.5,154.3,157.7,152.4z"/>
<path class="st42" d="M163.4,150.6c-0.2-0.5-0.5-1.1-0.5-1.1c-0.2-0.4-0.3-0.7-0.5-0.9c-1,0.3-1.9,0.6-2.9,0.9c-1,0.3-2,0.7-3,1
	c0.2,0.8,0.6,1.9,1,3.3c0.6,1.7,0.8,2,1,2.2c1.5,0.9,4.6,0.1,5.4-1.6C164.6,153.4,164.2,152.5,163.4,150.6z"/>
<ellipse transform="matrix(0.9621 -0.2726 0.2726 0.9621 -35.7134 41.1698)" class="st39" cx="130.3" cy="149.1" rx="5.3" ry="5.3"/>
<path class="st43" d="M185,89.3c7.3-44.6,11.6-56.4,14.2-56.2c3.3,0.3,7.5,19.8,0.2,37.3C195.3,80.3,188.7,86.3,185,89.3z"/>
</svg>
